%FSLAX34Y34*%
%MOMM*%
%LNCOPPER_TOP*%
G71*
G01*
%ADD10C, 6.00*%
%ADD11R, 5.20X5.10*%
%ADD12C, 6.20*%
%ADD13C, 6.20*%
%ADD14R, 5.60X6.00*%
%ADD15C, 4.70*%
%ADD16R, 5.20X5.40*%
%ADD17R, 7.50X5.40*%
%ADD18R, 5.10X5.20*%
%ADD19C, 6.00*%
%ADD20C, 7.00*%
%ADD21C, 5.60*%
%ADD22C, 1.60*%
%ADD23C, 10.00*%
%ADD24R, 5.40X5.30*%
%ADD25C, 0.70*%
%ADD26R, 5.60X5.60*%
%ADD27C, 4.40*%
%ADD28R, 5.30X5.40*%
%ADD29C, 2.00*%
%ADD30C, 2.00*%
%ADD31R, 1.20X1.10*%
%ADD32C, 2.20*%
%ADD33C, 2.20*%
%ADD34R, 1.60X2.00*%
%ADD35R, 1.20X1.40*%
%ADD36R, 3.50X1.40*%
%ADD37R, 1.10X1.20*%
%ADD38C, 2.00*%
%ADD39C, 3.00*%
%ADD40C, 6.00*%
%ADD41R, 1.40X1.30*%
%ADD42R, 1.60X1.60*%
%ADD43C, 0.40*%
%ADD44R, 1.30X1.40*%
%LPD*%
G36*
X0Y1000000D02*
X710000Y1000000D01*
X710000Y90000D01*
X0Y90000D01*
X0Y1000000D01*
G37*
%LPC*%
X431200Y932691D02*
G54D10*
D03*
X431200Y907291D02*
G54D10*
D03*
X431200Y881891D02*
G54D10*
D03*
X431200Y856491D02*
G54D10*
D03*
X431200Y831091D02*
G54D10*
D03*
X431200Y805691D02*
G54D10*
D03*
X431200Y780291D02*
G54D10*
D03*
X431200Y754891D02*
G54D10*
D03*
X431200Y729491D02*
G54D10*
D03*
X431200Y704091D02*
G54D10*
D03*
X431200Y678691D02*
G54D10*
D03*
X431200Y653291D02*
G54D10*
D03*
X431200Y602491D02*
G54D10*
D03*
X431200Y577091D02*
G54D10*
D03*
X278800Y932691D02*
G54D10*
D03*
X278800Y907291D02*
G54D10*
D03*
X278800Y881891D02*
G54D10*
D03*
X278800Y856491D02*
G54D10*
D03*
X278800Y831091D02*
G54D10*
D03*
X278800Y805691D02*
G54D10*
D03*
X278800Y780291D02*
G54D10*
D03*
X278800Y754891D02*
G54D10*
D03*
X278800Y729491D02*
G54D10*
D03*
X278800Y704091D02*
G54D10*
D03*
X278800Y678691D02*
G54D10*
D03*
X278800Y653291D02*
G54D10*
D03*
X278800Y602491D02*
G54D10*
D03*
X278800Y577091D02*
G54D10*
D03*
X474200Y653291D02*
G54D11*
D03*
X474200Y636291D02*
G54D11*
D03*
X517700Y738200D02*
G54D11*
D03*
X517700Y721200D02*
G54D11*
D03*
X396700Y125400D02*
G54D12*
D03*
X422100Y125400D02*
G54D12*
D03*
X567000Y742400D02*
G54D13*
D03*
X592400Y742400D02*
G54D13*
D03*
X617800Y742400D02*
G54D13*
D03*
X643200Y742400D02*
G54D13*
D03*
X643200Y717000D02*
G54D13*
D03*
X617800Y717000D02*
G54D13*
D03*
X592400Y717000D02*
G54D13*
D03*
X567000Y717000D02*
G54D13*
D03*
X538700Y738200D02*
G54D11*
D03*
X538700Y721200D02*
G54D11*
D03*
G36*
X480700Y726700D02*
X536700Y726700D01*
X536700Y666700D01*
X480700Y666700D01*
X480700Y726700D01*
G37*
X536700Y696700D02*
G54D14*
D03*
G54D15*
X517700Y721200D02*
X562800Y721200D01*
X567000Y717000D01*
G54D15*
X517700Y738200D02*
X562800Y738200D01*
X567000Y742400D01*
G54D15*
X536700Y696700D02*
X546700Y696700D01*
X567000Y717000D01*
G54D15*
X502000Y710000D02*
X502000Y703400D01*
X508700Y696700D01*
G54D15*
X502000Y710000D02*
X502000Y734000D01*
X506000Y738000D01*
G54D15*
X517700Y738200D02*
X506200Y738200D01*
X506000Y738000D01*
X549200Y651291D02*
G54D16*
D03*
X526200Y651291D02*
G54D16*
D03*
X503200Y651291D02*
G54D16*
D03*
X526200Y589291D02*
G54D17*
D03*
X529200Y671291D02*
G54D18*
D03*
X546200Y671291D02*
G54D18*
D03*
G54D15*
X278800Y577091D02*
X294091Y577091D01*
X319491Y602491D01*
X454200Y653291D02*
G54D11*
D03*
X454200Y636291D02*
G54D11*
D03*
G54D15*
X356000Y622000D02*
X339000Y622000D01*
X319491Y602491D01*
G54D15*
X549200Y651291D02*
X549200Y668291D01*
X546200Y671291D01*
X546200Y687200D01*
X536700Y696700D01*
G54D15*
X526200Y651291D02*
X526200Y668291D01*
X529200Y671291D01*
G54D15*
X508700Y696700D02*
X508700Y684300D01*
X519000Y674000D01*
G54D15*
X529200Y671291D02*
X521709Y671291D01*
X519000Y674000D01*
G54D15*
X431200Y653291D02*
X474200Y653291D01*
G54D15*
X429000Y622000D02*
X439909Y622000D01*
X454200Y636291D01*
X474200Y636291D01*
G54D15*
X474200Y636291D02*
X481291Y636291D01*
X495000Y650000D01*
G54D15*
X503200Y651291D02*
X496291Y651291D01*
X495000Y650000D01*
G54D15*
X431200Y907291D02*
X469709Y907291D01*
X616000Y761000D01*
G54D15*
X617800Y742400D02*
X617800Y759200D01*
X616000Y761000D01*
G54D15*
X643200Y717000D02*
X655000Y717000D01*
X662000Y724000D01*
X662000Y756000D01*
X645000Y773000D01*
X629000Y773000D01*
X477000Y925000D01*
G54D15*
X431200Y932691D02*
X469309Y932691D01*
X477000Y925000D01*
G54D15*
X431000Y952000D02*
X298109Y952000D01*
X278800Y932691D01*
G54D15*
X431000Y952000D02*
X470000Y952000D01*
X635000Y787000D01*
X652000Y787000D01*
X676000Y763000D01*
X676000Y714000D01*
X659000Y697000D01*
X625000Y697000D01*
X618000Y704000D01*
G54D15*
X617800Y717000D02*
X617800Y704200D01*
X618000Y704000D01*
G54D15*
X278800Y856491D02*
X265509Y856491D01*
X257000Y865000D01*
X257000Y949000D01*
X275000Y967000D01*
X476000Y967000D01*
X641000Y802000D01*
X658000Y802000D01*
X691000Y769000D01*
X691000Y707000D01*
X670000Y686000D01*
G54D15*
X650000Y683000D02*
X667000Y683000D01*
X670000Y686000D01*
G54D15*
X650000Y683000D02*
X615000Y683000D01*
X600000Y698000D01*
G54D15*
X592400Y717000D02*
X592400Y705600D01*
X600000Y698000D01*
X148900Y291000D02*
G54D13*
D03*
X174300Y291000D02*
G54D13*
D03*
X207300Y291000D02*
G54D13*
D03*
X232700Y291000D02*
G54D13*
D03*
X316900Y330000D02*
G54D13*
D03*
X283900Y330000D02*
G54D13*
D03*
X148900Y149000D02*
G54D13*
D03*
X174300Y149000D02*
G54D13*
D03*
X207300Y149000D02*
G54D13*
D03*
X232700Y149000D02*
G54D13*
D03*
X275217Y392999D02*
G54D19*
D03*
X326017Y392999D02*
G54D19*
D03*
X376508Y400290D02*
G54D19*
D03*
X376508Y349490D02*
G54D19*
D03*
X487100Y125400D02*
G54D20*
D03*
X537900Y125400D02*
G54D20*
D03*
X118800Y945800D02*
G54D10*
D03*
X144200Y945800D02*
G54D10*
D03*
X169600Y945800D02*
G54D10*
D03*
X195000Y945800D02*
G54D10*
D03*
X195000Y907700D02*
G54D10*
D03*
X169600Y907700D02*
G54D10*
D03*
X144200Y907700D02*
G54D10*
D03*
X118800Y907700D02*
G54D10*
D03*
X118800Y869600D02*
G54D10*
D03*
X144200Y869600D02*
G54D10*
D03*
X169600Y869600D02*
G54D10*
D03*
X195000Y869600D02*
G54D10*
D03*
X153000Y795000D02*
G54D10*
D03*
X153000Y769600D02*
G54D10*
D03*
X153000Y744200D02*
G54D10*
D03*
X153000Y718800D02*
G54D10*
D03*
X153000Y693400D02*
G54D10*
D03*
X153000Y668000D02*
G54D10*
D03*
X153000Y642600D02*
G54D10*
D03*
X153000Y617200D02*
G54D10*
D03*
G54D21*
X243800Y504200D02*
X326017Y421983D01*
X326017Y392999D01*
X193000Y540091D02*
G54D19*
D03*
X243800Y540091D02*
G54D19*
D03*
G54D22*
X193000Y540091D02*
X193000Y475216D01*
X275217Y392999D01*
G54D22*
X278800Y602491D02*
X255400Y602491D01*
X193000Y540091D01*
G54D21*
X278800Y577091D02*
X278800Y575091D01*
X243800Y540091D01*
G54D21*
X243800Y540091D02*
X243800Y504200D01*
X278800Y469200D01*
G54D15*
X326017Y392999D02*
X326017Y421983D01*
X308000Y440000D01*
G54D21*
X144200Y869600D02*
X144200Y836800D01*
X181000Y800000D01*
X181000Y670000D01*
X196000Y655000D01*
G54D21*
X278800Y653291D02*
X197709Y653291D01*
X196000Y655000D01*
X55000Y945000D02*
G54D23*
D03*
X655000Y945000D02*
G54D23*
D03*
X655000Y145000D02*
G54D23*
D03*
G54D21*
X144200Y869600D02*
X144200Y836800D01*
X157000Y824000D01*
X635000Y355600D02*
G54D13*
D03*
X635000Y330200D02*
G54D13*
D03*
X635000Y304800D02*
G54D13*
D03*
X609600Y304800D02*
G54D13*
D03*
X609600Y355600D02*
G54D13*
D03*
X609600Y330200D02*
G54D13*
D03*
X584200Y304800D02*
G54D13*
D03*
X584200Y330200D02*
G54D13*
D03*
X584200Y355600D02*
G54D13*
D03*
X558800Y355600D02*
G54D13*
D03*
X558800Y330200D02*
G54D13*
D03*
X558800Y304800D02*
G54D13*
D03*
X533400Y355600D02*
G54D13*
D03*
X533400Y330200D02*
G54D13*
D03*
X533400Y304800D02*
G54D13*
D03*
G54D15*
X635000Y355600D02*
X533400Y355600D01*
G54D15*
X635000Y330200D02*
X533400Y330200D01*
G54D15*
X533400Y304800D02*
X635000Y304800D01*
X279000Y519000D02*
G54D10*
D03*
X447000Y519000D02*
G54D10*
D03*
G54D15*
X533400Y330200D02*
X522800Y330200D01*
X464000Y389000D01*
G54D15*
X464000Y389000D02*
X464000Y502000D01*
G54D15*
X472500Y308500D02*
X443000Y338000D01*
X443000Y375000D01*
X299000Y519000D01*
X506500Y308500D02*
G54D24*
D03*
X506500Y327500D02*
G54D24*
D03*
G54D15*
X443000Y375000D02*
X443000Y338000D01*
X465000Y316000D01*
G54D15*
X506500Y308500D02*
X472500Y308500D01*
X465000Y316000D01*
G54D15*
X533400Y330200D02*
X509200Y330200D01*
X506500Y327500D01*
X679000Y356600D02*
G54D18*
D03*
X662000Y356600D02*
G54D18*
D03*
X679000Y333600D02*
G54D18*
D03*
X662000Y333600D02*
G54D18*
D03*
G54D15*
X662000Y356600D02*
X636000Y356600D01*
X635000Y355600D01*
G54D15*
X662000Y333600D02*
X662000Y356600D01*
G54D15*
X679000Y356600D02*
X679000Y324000D01*
X663400Y308400D01*
G54D15*
X635000Y304800D02*
X659800Y304800D01*
X663400Y308400D01*
X119550Y455950D02*
G54D13*
D03*
X119550Y430550D02*
G54D13*
D03*
X119550Y405150D02*
G54D13*
D03*
X119550Y379750D02*
G54D13*
D03*
X68750Y379750D02*
G54D13*
D03*
X68750Y405150D02*
G54D13*
D03*
X68750Y430550D02*
G54D13*
D03*
X68750Y455950D02*
G54D13*
D03*
X55000Y145000D02*
G54D23*
D03*
X331200Y659291D02*
G54D24*
D03*
X331200Y640291D02*
G54D24*
D03*
G54D15*
X279000Y519000D02*
X299000Y519000D01*
X443000Y375000D01*
G54D15*
X464000Y442000D02*
X464000Y502000D01*
X447000Y519000D01*
X619200Y546400D02*
G54D10*
D03*
X593800Y546400D02*
G54D10*
D03*
X568400Y546400D02*
G54D10*
D03*
X543000Y546400D02*
G54D10*
D03*
X619200Y521000D02*
G54D10*
D03*
X593800Y521000D02*
G54D10*
D03*
X568400Y521000D02*
G54D10*
D03*
X543000Y521000D02*
G54D10*
D03*
X517600Y521000D02*
G54D10*
D03*
X517600Y546400D02*
G54D10*
D03*
X492200Y521000D02*
G54D10*
D03*
X492200Y546400D02*
G54D10*
D03*
G54D25*
X567000Y717000D02*
X567000Y710000D01*
X609000Y668000D01*
X671000Y668000D01*
X683000Y656000D01*
X683000Y403600D01*
X635000Y355600D01*
G54D15*
X431200Y907291D02*
X412291Y907291D01*
X371000Y866000D01*
X371000Y636000D01*
X371000Y636000D02*
G54D26*
D03*
X371000Y608000D02*
G54D26*
D03*
G54D27*
X352000Y622000D02*
X388000Y622000D01*
G54D15*
X385000Y622000D02*
X439909Y622000D01*
G54D15*
X432000Y556000D02*
X456000Y556000D01*
X465000Y565000D01*
X631000Y565000D01*
X641000Y555000D01*
X641000Y509000D01*
X631000Y499000D01*
X550000Y499000D01*
X544000Y505000D01*
G54D15*
X543000Y521000D02*
X543000Y506000D01*
X544000Y505000D01*
G54D15*
X432000Y556000D02*
X423000Y556000D01*
X371000Y608000D01*
G54D15*
X446000Y538000D02*
X462000Y538000D01*
X470000Y530000D01*
X470000Y514000D01*
X484000Y500000D01*
X512000Y500000D01*
X517000Y505000D01*
G54D15*
X517600Y521000D02*
X517600Y505600D01*
X517000Y505000D01*
G54D15*
X446000Y538000D02*
X317891Y538000D01*
X278800Y577091D01*
X336800Y684000D02*
G54D28*
D03*
X355800Y684000D02*
G54D28*
D03*
X305200Y654291D02*
G54D11*
D03*
X305200Y637291D02*
G54D11*
D03*
G54D15*
X305200Y654291D02*
X305200Y663800D01*
X292000Y677000D01*
G54D15*
X278800Y678691D02*
X290309Y678691D01*
X292000Y677000D01*
G54D15*
X305200Y637291D02*
X305200Y612200D01*
X301000Y608000D01*
G54D15*
X278800Y602491D02*
X295491Y602491D01*
X301000Y608000D01*
G54D15*
X305200Y637291D02*
X328200Y637291D01*
X331200Y640291D01*
G54D15*
X290309Y678691D02*
X311800Y678691D01*
X331200Y659291D01*
G54D15*
X356000Y622000D02*
X356000Y683800D01*
X355800Y684000D01*
G54D15*
X336800Y684000D02*
X317109Y684000D01*
X311800Y678691D01*
G54D29*
X283900Y330000D02*
X283900Y258100D01*
X325000Y217000D01*
X629000Y217000D01*
X698000Y286000D01*
X698000Y415000D01*
X683000Y430000D01*
G54D15*
X506500Y308500D02*
X529700Y308500D01*
X533400Y304800D01*
X530800Y776000D02*
G54D28*
D03*
X549800Y776000D02*
G54D28*
D03*
G54D15*
X530800Y776000D02*
X530800Y761600D01*
X538700Y753700D01*
X555700Y753700D01*
X567000Y742400D01*
G54D15*
X549800Y776000D02*
X575000Y776000D01*
X592000Y759000D01*
G54D15*
X592400Y742400D02*
X592400Y758600D01*
X592000Y759000D01*
%LPD*%
X431200Y932691D02*
G54D30*
D03*
X431200Y907291D02*
G54D30*
D03*
X431200Y881891D02*
G54D30*
D03*
X431200Y856491D02*
G54D30*
D03*
X431200Y831091D02*
G54D30*
D03*
X431200Y805691D02*
G54D30*
D03*
X431200Y780291D02*
G54D30*
D03*
X431200Y754891D02*
G54D30*
D03*
X431200Y729491D02*
G54D30*
D03*
X431200Y704091D02*
G54D30*
D03*
X431200Y678691D02*
G54D30*
D03*
X431200Y653291D02*
G54D30*
D03*
X431200Y602491D02*
G54D30*
D03*
X431200Y577091D02*
G54D30*
D03*
X278800Y932691D02*
G54D30*
D03*
X278800Y907291D02*
G54D30*
D03*
X278800Y881891D02*
G54D30*
D03*
X278800Y856491D02*
G54D30*
D03*
X278800Y831091D02*
G54D30*
D03*
X278800Y805691D02*
G54D30*
D03*
X278800Y780291D02*
G54D30*
D03*
X278800Y754891D02*
G54D30*
D03*
X278800Y729491D02*
G54D30*
D03*
X278800Y704091D02*
G54D30*
D03*
X278800Y678691D02*
G54D30*
D03*
X278800Y653291D02*
G54D30*
D03*
X278800Y602491D02*
G54D30*
D03*
X278800Y577091D02*
G54D30*
D03*
X474200Y653291D02*
G54D31*
D03*
X474200Y636291D02*
G54D31*
D03*
X517700Y738200D02*
G54D31*
D03*
X517700Y721200D02*
G54D31*
D03*
X396700Y125400D02*
G54D32*
D03*
X422100Y125400D02*
G54D32*
D03*
X567000Y742400D02*
G54D33*
D03*
X592400Y742400D02*
G54D33*
D03*
X617800Y742400D02*
G54D33*
D03*
X643200Y742400D02*
G54D33*
D03*
X643200Y717000D02*
G54D33*
D03*
X617800Y717000D02*
G54D33*
D03*
X592400Y717000D02*
G54D33*
D03*
X567000Y717000D02*
G54D33*
D03*
X538700Y738200D02*
G54D31*
D03*
X538700Y721200D02*
G54D31*
D03*
G36*
X500700Y706700D02*
X516700Y706700D01*
X516700Y686700D01*
X500700Y686700D01*
X500700Y706700D01*
G37*
X536700Y696700D02*
G54D34*
D03*
G54D25*
X517700Y721200D02*
X562800Y721200D01*
X567000Y717000D01*
G54D25*
X517700Y738200D02*
X562800Y738200D01*
X567000Y742400D01*
G54D25*
X536700Y696700D02*
X546700Y696700D01*
X567000Y717000D01*
G54D25*
X502000Y710000D02*
X502000Y703400D01*
X508700Y696700D01*
G54D25*
X502000Y710000D02*
X502000Y734000D01*
X506000Y738000D01*
G54D25*
X517700Y738200D02*
X506200Y738200D01*
X506000Y738000D01*
X549200Y651291D02*
G54D35*
D03*
X526200Y651291D02*
G54D35*
D03*
X503200Y651291D02*
G54D35*
D03*
X526200Y589291D02*
G54D36*
D03*
X529200Y671291D02*
G54D37*
D03*
X546200Y671291D02*
G54D37*
D03*
G54D25*
X278800Y577091D02*
X294091Y577091D01*
X319491Y602491D01*
X454200Y653291D02*
G54D31*
D03*
X454200Y636291D02*
G54D31*
D03*
G54D25*
X356000Y622000D02*
X339000Y622000D01*
X319491Y602491D01*
G54D25*
X549200Y651291D02*
X549200Y668291D01*
X546200Y671291D01*
X546200Y687200D01*
X536700Y696700D01*
G54D25*
X526200Y651291D02*
X526200Y668291D01*
X529200Y671291D01*
G54D25*
X508700Y696700D02*
X508700Y684300D01*
X519000Y674000D01*
G54D25*
X529200Y671291D02*
X521709Y671291D01*
X519000Y674000D01*
G54D25*
X431200Y653291D02*
X474200Y653291D01*
G54D25*
X429000Y622000D02*
X439909Y622000D01*
X454200Y636291D01*
X474200Y636291D01*
G54D25*
X474200Y636291D02*
X481291Y636291D01*
X495000Y650000D01*
G54D25*
X503200Y651291D02*
X496291Y651291D01*
X495000Y650000D01*
G54D25*
X431200Y907291D02*
X469709Y907291D01*
X616000Y761000D01*
G54D25*
X617800Y742400D02*
X617800Y759200D01*
X616000Y761000D01*
G54D25*
X643200Y717000D02*
X655000Y717000D01*
X662000Y724000D01*
X662000Y756000D01*
X645000Y773000D01*
X629000Y773000D01*
X477000Y925000D01*
G54D25*
X431200Y932691D02*
X469309Y932691D01*
X477000Y925000D01*
G54D25*
X431000Y952000D02*
X298109Y952000D01*
X278800Y932691D01*
G54D25*
X431000Y952000D02*
X470000Y952000D01*
X635000Y787000D01*
X652000Y787000D01*
X676000Y763000D01*
X676000Y714000D01*
X659000Y697000D01*
X625000Y697000D01*
X618000Y704000D01*
G54D25*
X617800Y717000D02*
X617800Y704200D01*
X618000Y704000D01*
G54D25*
X278800Y856491D02*
X265509Y856491D01*
X257000Y865000D01*
X257000Y949000D01*
X275000Y967000D01*
X476000Y967000D01*
X641000Y802000D01*
X658000Y802000D01*
X691000Y769000D01*
X691000Y707000D01*
X670000Y686000D01*
G54D25*
X650000Y683000D02*
X667000Y683000D01*
X670000Y686000D01*
G54D25*
X650000Y683000D02*
X615000Y683000D01*
X600000Y698000D01*
G54D25*
X592400Y717000D02*
X592400Y705600D01*
X600000Y698000D01*
X148900Y291000D02*
G54D33*
D03*
X174300Y291000D02*
G54D33*
D03*
X207300Y291000D02*
G54D33*
D03*
X232700Y291000D02*
G54D33*
D03*
X316900Y330000D02*
G54D33*
D03*
X283900Y330000D02*
G54D33*
D03*
X148900Y149000D02*
G54D33*
D03*
X174300Y149000D02*
G54D33*
D03*
X207300Y149000D02*
G54D33*
D03*
X232700Y149000D02*
G54D33*
D03*
X275217Y392999D02*
G54D38*
D03*
X326017Y392999D02*
G54D38*
D03*
X376508Y400290D02*
G54D38*
D03*
X376508Y349490D02*
G54D38*
D03*
X487100Y125400D02*
G54D39*
D03*
X537900Y125400D02*
G54D39*
D03*
X118800Y945800D02*
G54D30*
D03*
X144200Y945800D02*
G54D30*
D03*
X169600Y945800D02*
G54D30*
D03*
X195000Y945800D02*
G54D30*
D03*
X195000Y907700D02*
G54D30*
D03*
X169600Y907700D02*
G54D30*
D03*
X144200Y907700D02*
G54D30*
D03*
X118800Y907700D02*
G54D30*
D03*
X118800Y869600D02*
G54D30*
D03*
X144200Y869600D02*
G54D30*
D03*
X169600Y869600D02*
G54D30*
D03*
X195000Y869600D02*
G54D30*
D03*
X153000Y795000D02*
G54D30*
D03*
X153000Y769600D02*
G54D30*
D03*
X153000Y744200D02*
G54D30*
D03*
X153000Y718800D02*
G54D30*
D03*
X153000Y693400D02*
G54D30*
D03*
X153000Y668000D02*
G54D30*
D03*
X153000Y642600D02*
G54D30*
D03*
X153000Y617200D02*
G54D30*
D03*
G54D22*
X243800Y504200D02*
X326017Y421983D01*
X326017Y392999D01*
X193000Y540091D02*
G54D38*
D03*
X243800Y540091D02*
G54D38*
D03*
G54D22*
X193000Y540091D02*
X193000Y475216D01*
X275217Y392999D01*
G54D22*
X278800Y602491D02*
X255400Y602491D01*
X193000Y540091D01*
G54D22*
X278800Y577091D02*
X278800Y575091D01*
X243800Y540091D01*
G54D22*
X243800Y540091D02*
X243800Y504200D01*
X278800Y469200D01*
G54D25*
X326017Y392999D02*
X326017Y421983D01*
X308000Y440000D01*
G54D22*
X144200Y869600D02*
X144200Y836800D01*
X181000Y800000D01*
X181000Y670000D01*
X196000Y655000D01*
G54D22*
X278800Y653291D02*
X197709Y653291D01*
X196000Y655000D01*
X55000Y945000D02*
G54D40*
D03*
X655000Y945000D02*
G54D40*
D03*
X655000Y145000D02*
G54D40*
D03*
G54D22*
X144200Y869600D02*
X144200Y836800D01*
X157000Y824000D01*
X635000Y355600D02*
G54D33*
D03*
X635000Y330200D02*
G54D33*
D03*
X635000Y304800D02*
G54D33*
D03*
X609600Y304800D02*
G54D33*
D03*
X609600Y355600D02*
G54D33*
D03*
X609600Y330200D02*
G54D33*
D03*
X584200Y304800D02*
G54D33*
D03*
X584200Y330200D02*
G54D33*
D03*
X584200Y355600D02*
G54D33*
D03*
X558800Y355600D02*
G54D33*
D03*
X558800Y330200D02*
G54D33*
D03*
X558800Y304800D02*
G54D33*
D03*
X533400Y355600D02*
G54D33*
D03*
X533400Y330200D02*
G54D33*
D03*
X533400Y304800D02*
G54D33*
D03*
G54D25*
X635000Y355600D02*
X533400Y355600D01*
G54D25*
X635000Y330200D02*
X533400Y330200D01*
G54D25*
X533400Y304800D02*
X635000Y304800D01*
X279000Y519000D02*
G54D30*
D03*
X447000Y519000D02*
G54D30*
D03*
G54D25*
X533400Y330200D02*
X522800Y330200D01*
X464000Y389000D01*
G54D25*
X464000Y389000D02*
X464000Y502000D01*
G54D25*
X472500Y308500D02*
X443000Y338000D01*
X443000Y375000D01*
X299000Y519000D01*
X506500Y308500D02*
G54D41*
D03*
X506500Y327500D02*
G54D41*
D03*
G54D25*
X443000Y375000D02*
X443000Y338000D01*
X465000Y316000D01*
G54D25*
X506500Y308500D02*
X472500Y308500D01*
X465000Y316000D01*
G54D25*
X533400Y330200D02*
X509200Y330200D01*
X506500Y327500D01*
X679000Y356600D02*
G54D37*
D03*
X662000Y356600D02*
G54D37*
D03*
X679000Y333600D02*
G54D37*
D03*
X662000Y333600D02*
G54D37*
D03*
G54D25*
X662000Y356600D02*
X636000Y356600D01*
X635000Y355600D01*
G54D25*
X662000Y333600D02*
X662000Y356600D01*
G54D25*
X679000Y356600D02*
X679000Y324000D01*
X663400Y308400D01*
G54D25*
X635000Y304800D02*
X659800Y304800D01*
X663400Y308400D01*
X119550Y455950D02*
G54D33*
D03*
X119550Y430550D02*
G54D33*
D03*
X119550Y405150D02*
G54D33*
D03*
X119550Y379750D02*
G54D33*
D03*
X68750Y379750D02*
G54D33*
D03*
X68750Y405150D02*
G54D33*
D03*
X68750Y430550D02*
G54D33*
D03*
X68750Y455950D02*
G54D33*
D03*
X55000Y145000D02*
G54D40*
D03*
X331200Y659291D02*
G54D41*
D03*
X331200Y640291D02*
G54D41*
D03*
G54D25*
X279000Y519000D02*
X299000Y519000D01*
X443000Y375000D01*
G54D25*
X464000Y442000D02*
X464000Y502000D01*
X447000Y519000D01*
X619200Y546400D02*
G54D30*
D03*
X593800Y546400D02*
G54D30*
D03*
X568400Y546400D02*
G54D30*
D03*
X543000Y546400D02*
G54D30*
D03*
X619200Y521000D02*
G54D30*
D03*
X593800Y521000D02*
G54D30*
D03*
X568400Y521000D02*
G54D30*
D03*
X543000Y521000D02*
G54D30*
D03*
X517600Y521000D02*
G54D30*
D03*
X517600Y546400D02*
G54D30*
D03*
X492200Y521000D02*
G54D30*
D03*
X492200Y546400D02*
G54D30*
D03*
G54D25*
X567000Y717000D02*
X567000Y710000D01*
X609000Y668000D01*
X671000Y668000D01*
X683000Y656000D01*
X683000Y403600D01*
X635000Y355600D01*
G54D25*
X431200Y907291D02*
X412291Y907291D01*
X371000Y866000D01*
X371000Y636000D01*
X371000Y636000D02*
G54D42*
D03*
X371000Y608000D02*
G54D42*
D03*
G54D43*
X352000Y622000D02*
X388000Y622000D01*
G54D25*
X385000Y622000D02*
X439909Y622000D01*
G54D25*
X432000Y556000D02*
X456000Y556000D01*
X465000Y565000D01*
X631000Y565000D01*
X641000Y555000D01*
X641000Y509000D01*
X631000Y499000D01*
X550000Y499000D01*
X544000Y505000D01*
G54D25*
X543000Y521000D02*
X543000Y506000D01*
X544000Y505000D01*
G54D25*
X432000Y556000D02*
X423000Y556000D01*
X371000Y608000D01*
G54D25*
X446000Y538000D02*
X462000Y538000D01*
X470000Y530000D01*
X470000Y514000D01*
X484000Y500000D01*
X512000Y500000D01*
X517000Y505000D01*
G54D25*
X517600Y521000D02*
X517600Y505600D01*
X517000Y505000D01*
G54D25*
X446000Y538000D02*
X317891Y538000D01*
X278800Y577091D01*
X336800Y684000D02*
G54D44*
D03*
X355800Y684000D02*
G54D44*
D03*
X305200Y654291D02*
G54D31*
D03*
X305200Y637291D02*
G54D31*
D03*
G54D25*
X305200Y654291D02*
X305200Y663800D01*
X292000Y677000D01*
G54D25*
X278800Y678691D02*
X290309Y678691D01*
X292000Y677000D01*
G54D25*
X305200Y637291D02*
X305200Y612200D01*
X301000Y608000D01*
G54D25*
X278800Y602491D02*
X295491Y602491D01*
X301000Y608000D01*
G54D25*
X305200Y637291D02*
X328200Y637291D01*
X331200Y640291D01*
G54D25*
X290309Y678691D02*
X311800Y678691D01*
X331200Y659291D01*
G54D25*
X356000Y622000D02*
X356000Y683800D01*
X355800Y684000D01*
G54D25*
X336800Y684000D02*
X317109Y684000D01*
X311800Y678691D01*
G54D29*
X283900Y330000D02*
X283900Y258100D01*
X325000Y217000D01*
X629000Y217000D01*
X698000Y286000D01*
X698000Y415000D01*
X683000Y430000D01*
G54D25*
X506500Y308500D02*
X529700Y308500D01*
X533400Y304800D01*
X530800Y776000D02*
G54D44*
D03*
X549800Y776000D02*
G54D44*
D03*
G54D25*
X530800Y776000D02*
X530800Y761600D01*
X538700Y753700D01*
X555700Y753700D01*
X567000Y742400D01*
G54D25*
X549800Y776000D02*
X575000Y776000D01*
X592000Y759000D01*
G54D25*
X592400Y742400D02*
X592400Y758600D01*
X592000Y759000D01*
M02*
