%FSLAX34Y34*%
%MOMM*%
%LNCOPPER_BOTTOM*%
G71*
G01*
%ADD10C, 0.10*%
%ADD11C, 0.17*%
%ADD12C, 2.00*%
%ADD13C, 0.18*%
%ADD14C, 0.15*%
%ADD15C, 0.09*%
%ADD16C, 0.07*%
%ADD17C, 0.20*%
%ADD18C, 0.11*%
%LPD*%
G54D10*
X445488Y535816D02*
X445488Y973966D01*
G54D10*
X445488Y973966D02*
X264512Y973966D01*
G54D10*
X264512Y973966D02*
X264512Y535816D01*
G54D10*
X264512Y535816D02*
X445488Y535816D01*
G54D10*
X393100Y995000D02*
X316900Y995000D01*
G54D10*
X316900Y995000D02*
X316900Y973966D01*
G54D10*
X393100Y995000D02*
X393100Y973966D01*
G54D11*
X338684Y991108D02*
X338684Y980275D01*
X339684Y978608D01*
X341684Y977775D01*
X343684Y977775D01*
X345684Y978608D01*
X346684Y980275D01*
X346684Y991108D01*
G54D11*
X350351Y980275D02*
X351351Y978608D01*
X353351Y977775D01*
X355351Y977775D01*
X357351Y978608D01*
X358351Y980275D01*
X358351Y981942D01*
X357351Y983608D01*
X355351Y984442D01*
X353351Y984442D01*
X351351Y985275D01*
X350351Y986942D01*
X350351Y988608D01*
X351351Y990275D01*
X353351Y991108D01*
X355351Y991108D01*
X357351Y990275D01*
X358351Y988608D01*
G54D11*
X362018Y977775D02*
X362018Y991108D01*
X367018Y991108D01*
X369018Y990275D01*
X370018Y988608D01*
X370018Y986942D01*
X369018Y985275D01*
X367018Y984442D01*
X369018Y983608D01*
X370018Y981942D01*
X370018Y980275D01*
X369018Y978608D01*
X367018Y977775D01*
X362018Y977775D01*
G54D11*
X362018Y984442D02*
X367018Y984442D01*
X431200Y627891D02*
G54D12*
D03*
X278800Y627891D02*
G54D12*
D03*
G54D13*
X297500Y925737D02*
X297500Y939960D01*
X302834Y939960D01*
X304967Y939071D01*
X306034Y937293D01*
X306034Y928404D01*
X304967Y926626D01*
X302834Y925737D01*
X297500Y925737D01*
G54D13*
X309944Y934626D02*
X315278Y939960D01*
X315278Y925737D01*
G54D13*
X319188Y937293D02*
X320255Y939071D01*
X322388Y939960D01*
X324522Y939960D01*
X326655Y939071D01*
X327722Y937293D01*
X327722Y935515D01*
X326655Y933737D01*
X324522Y932848D01*
X326655Y931960D01*
X327722Y930182D01*
X327722Y928404D01*
X326655Y926626D01*
X324522Y925737D01*
X322388Y925737D01*
X320255Y926626D01*
X319188Y928404D01*
G54D13*
X293418Y911496D02*
X294485Y913274D01*
X296618Y914163D01*
X298752Y914163D01*
X300885Y913274D01*
X301952Y911496D01*
X301952Y909718D01*
X300885Y907940D01*
X298752Y907052D01*
X300885Y906163D01*
X301952Y904385D01*
X301952Y902607D01*
X300885Y900829D01*
X298752Y899940D01*
X296618Y899940D01*
X294485Y900829D01*
X293418Y902607D01*
G54D13*
X305862Y914163D02*
X311196Y899940D01*
X316529Y914163D01*
G54D13*
X320440Y911496D02*
X321507Y913274D01*
X323640Y914163D01*
X325774Y914163D01*
X327907Y913274D01*
X328974Y911496D01*
X328974Y909718D01*
X327907Y907940D01*
X325774Y907052D01*
X327907Y906163D01*
X328974Y904385D01*
X328974Y902607D01*
X327907Y900829D01*
X325774Y899940D01*
X323640Y899940D01*
X321507Y900829D01*
X320440Y902607D01*
G54D13*
X301885Y881652D02*
X305085Y879874D01*
X306152Y878096D01*
X306152Y874540D01*
G54D13*
X297618Y874540D02*
X297618Y888763D01*
X302952Y888763D01*
X305085Y887874D01*
X306152Y886096D01*
X306152Y884318D01*
X305085Y882540D01*
X302952Y881652D01*
X297618Y881652D01*
G54D13*
X317529Y874540D02*
X310062Y874540D01*
X310062Y888763D01*
X317529Y888763D01*
G54D13*
X310062Y881652D02*
X317529Y881652D01*
G54D13*
X321440Y874540D02*
X321440Y888763D01*
X328907Y888763D01*
G54D13*
X321440Y881652D02*
X328907Y881652D01*
G54D13*
X305349Y849537D02*
X310682Y863760D01*
X316015Y849537D01*
G54D13*
X307482Y854871D02*
X313882Y854871D01*
G54D13*
X328460Y861093D02*
X328460Y852204D01*
X327393Y850426D01*
X325260Y849537D01*
X323127Y849537D01*
X320993Y850426D01*
X319927Y852204D01*
X319927Y861093D01*
X320993Y862871D01*
X323127Y863760D01*
X325260Y863760D01*
X327393Y862871D01*
X328460Y861093D01*
G54D13*
X304949Y824137D02*
X310282Y838360D01*
X315615Y824137D01*
G54D13*
X307082Y829471D02*
X313482Y829471D01*
G54D13*
X319527Y833026D02*
X324860Y838360D01*
X324860Y824137D01*
G54D13*
X305349Y798737D02*
X310682Y812960D01*
X316015Y798737D01*
G54D13*
X307482Y804071D02*
X313882Y804071D01*
G54D13*
X328460Y798737D02*
X319927Y798737D01*
X319927Y799626D01*
X320993Y801404D01*
X327393Y806737D01*
X328460Y808515D01*
X328460Y810293D01*
X327393Y812071D01*
X325260Y812960D01*
X323127Y812960D01*
X320993Y812071D01*
X319927Y810293D01*
G54D13*
X305349Y773337D02*
X310682Y787560D01*
X316015Y773337D01*
G54D13*
X307482Y778671D02*
X313882Y778671D01*
G54D13*
X319927Y784893D02*
X320993Y786671D01*
X323127Y787560D01*
X325260Y787560D01*
X327393Y786671D01*
X328460Y784893D01*
X328460Y783115D01*
X327393Y781337D01*
X325260Y780448D01*
X327393Y779560D01*
X328460Y777782D01*
X328460Y776004D01*
X327393Y774226D01*
X325260Y773337D01*
X323127Y773337D01*
X320993Y774226D01*
X319927Y776004D01*
G54D13*
X305334Y747938D02*
X310667Y762160D01*
X316000Y747938D01*
G54D13*
X307467Y753271D02*
X313867Y753271D01*
G54D13*
X326312Y747938D02*
X326312Y762160D01*
X319912Y753271D01*
X319912Y751493D01*
X328445Y751493D01*
G54D13*
X305349Y722537D02*
X310682Y736760D01*
X316015Y722537D01*
G54D13*
X307482Y727871D02*
X313882Y727871D01*
G54D13*
X328460Y736760D02*
X319927Y736760D01*
X319927Y730537D01*
X320993Y730537D01*
X323127Y731426D01*
X325260Y731426D01*
X327393Y730537D01*
X328460Y728760D01*
X328460Y725204D01*
X327393Y723426D01*
X325260Y722537D01*
X323127Y722537D01*
X320993Y723426D01*
X319927Y725204D01*
G54D13*
X305349Y697137D02*
X310682Y711360D01*
X316015Y697137D01*
G54D13*
X307482Y702471D02*
X313882Y702471D01*
G54D13*
X328460Y708693D02*
X327393Y710471D01*
X325260Y711360D01*
X323127Y711360D01*
X320993Y710471D01*
X319927Y708693D01*
X319927Y704248D01*
X319927Y703360D01*
X323127Y705137D01*
X325260Y705137D01*
X327393Y704248D01*
X328460Y702471D01*
X328460Y699804D01*
X327393Y698026D01*
X325260Y697137D01*
X323127Y697137D01*
X320993Y698026D01*
X319927Y699804D01*
X319927Y704248D01*
G54D13*
X305335Y671739D02*
X310668Y685961D01*
X316001Y671739D01*
G54D13*
X307468Y677072D02*
X313868Y677072D01*
G54D13*
X319913Y685961D02*
X328446Y685961D01*
X327379Y684183D01*
X325246Y681517D01*
X323113Y677961D01*
X322046Y675294D01*
X322046Y671739D01*
G54D13*
X313869Y660560D02*
X305336Y660560D01*
X305336Y654337D01*
X306402Y654337D01*
X308536Y655226D01*
X310669Y655226D01*
X312802Y654337D01*
X313869Y652560D01*
X313869Y649004D01*
X312802Y647226D01*
X310669Y646337D01*
X308536Y646337D01*
X306402Y647226D01*
X305336Y649004D01*
G54D13*
X317780Y660560D02*
X323113Y646337D01*
X328446Y660560D01*
G54D13*
X301358Y628048D02*
X304558Y626271D01*
X305625Y624493D01*
X305625Y620937D01*
G54D13*
X297092Y620937D02*
X297092Y635160D01*
X302425Y635160D01*
X304558Y634271D01*
X305625Y632493D01*
X305625Y630715D01*
X304558Y628937D01*
X302425Y628048D01*
X297092Y628048D01*
G54D13*
X309536Y623604D02*
X310602Y621826D01*
X312736Y620937D01*
X314869Y620937D01*
X317002Y621826D01*
X318069Y623604D01*
X318069Y625382D01*
X317002Y627160D01*
X314869Y628048D01*
X312736Y628048D01*
X310602Y628937D01*
X309536Y630715D01*
X309536Y632493D01*
X310602Y634271D01*
X312736Y635160D01*
X314869Y635160D01*
X317002Y634271D01*
X318069Y632493D01*
G54D13*
X326246Y620937D02*
X326246Y635160D01*
G54D13*
X321980Y635160D02*
X330513Y635160D01*
G54D13*
X298198Y602648D02*
X302465Y602648D01*
X302465Y598204D01*
X301398Y596426D01*
X299265Y595537D01*
X297132Y595537D01*
X294998Y596426D01*
X293932Y598204D01*
X293932Y607093D01*
X294998Y608871D01*
X297132Y609760D01*
X299265Y609760D01*
X301398Y608871D01*
X302465Y607093D01*
G54D13*
X306376Y595537D02*
X306376Y609760D01*
X314909Y595537D01*
X314909Y609760D01*
G54D13*
X318820Y595537D02*
X318820Y609760D01*
X324153Y609760D01*
X326286Y608871D01*
X327353Y607093D01*
X327353Y598204D01*
X326286Y596426D01*
X324153Y595537D01*
X318820Y595537D01*
G54D13*
X292871Y584360D02*
X298205Y570137D01*
X303538Y584360D01*
G54D13*
X307449Y570137D02*
X307449Y578137D01*
G54D13*
X307449Y580804D02*
X307449Y580804D01*
G54D13*
X311360Y570137D02*
X311360Y578137D01*
G54D13*
X311360Y576360D02*
X312427Y577604D01*
X314560Y578137D01*
X316694Y577604D01*
X317760Y576360D01*
X317760Y570137D01*
G54D13*
X382340Y925737D02*
X382340Y939960D01*
X387674Y939960D01*
X389807Y939071D01*
X390874Y937293D01*
X390874Y928404D01*
X389807Y926626D01*
X387674Y925737D01*
X382340Y925737D01*
G54D13*
X394784Y934626D02*
X400118Y939960D01*
X400118Y925737D01*
G54D13*
X412562Y925737D02*
X404028Y925737D01*
X404028Y926626D01*
X405095Y928404D01*
X411495Y933737D01*
X412562Y935515D01*
X412562Y937293D01*
X411495Y939071D01*
X409362Y939960D01*
X407228Y939960D01*
X405095Y939071D01*
X404028Y937293D01*
G54D13*
X382340Y900337D02*
X382340Y914560D01*
X387674Y914560D01*
X389807Y913671D01*
X390874Y911893D01*
X390874Y903004D01*
X389807Y901226D01*
X387674Y900337D01*
X382340Y900337D01*
G54D13*
X394784Y909226D02*
X400118Y914560D01*
X400118Y900337D01*
G54D13*
X404028Y909226D02*
X409362Y914560D01*
X409362Y900337D01*
G54D13*
X382340Y874937D02*
X382340Y889160D01*
X387674Y889160D01*
X389807Y888271D01*
X390874Y886493D01*
X390874Y877604D01*
X389807Y875826D01*
X387674Y874937D01*
X382340Y874937D01*
G54D13*
X394784Y883826D02*
X400118Y889160D01*
X400118Y874937D01*
G54D13*
X412562Y886493D02*
X412562Y877604D01*
X411495Y875826D01*
X409362Y874937D01*
X407228Y874937D01*
X405095Y875826D01*
X404028Y877604D01*
X404028Y886493D01*
X405095Y888271D01*
X407228Y889160D01*
X409362Y889160D01*
X411495Y888271D01*
X412562Y886493D01*
G54D13*
X382340Y849537D02*
X382340Y863760D01*
X387674Y863760D01*
X389807Y862871D01*
X390874Y861093D01*
X390874Y852204D01*
X389807Y850426D01*
X387674Y849537D01*
X382340Y849537D01*
G54D13*
X394784Y852204D02*
X395851Y850426D01*
X397984Y849537D01*
X400118Y849537D01*
X402251Y850426D01*
X403318Y852204D01*
X403318Y856648D01*
X403318Y857537D01*
X400118Y855760D01*
X397984Y855760D01*
X395851Y856648D01*
X394784Y858426D01*
X394784Y861093D01*
X395851Y862871D01*
X397984Y863760D01*
X400118Y863760D01*
X402251Y862871D01*
X403318Y861093D01*
X403318Y856648D01*
G54D13*
X382340Y824137D02*
X382340Y838360D01*
X387674Y838360D01*
X389807Y837471D01*
X390874Y835693D01*
X390874Y826804D01*
X389807Y825026D01*
X387674Y824137D01*
X382340Y824137D01*
G54D13*
X400118Y831248D02*
X397984Y831248D01*
X395851Y832137D01*
X394784Y833915D01*
X394784Y835693D01*
X395851Y837471D01*
X397984Y838360D01*
X400118Y838360D01*
X402251Y837471D01*
X403318Y835693D01*
X403318Y833915D01*
X402251Y832137D01*
X400118Y831248D01*
X402251Y830360D01*
X403318Y828582D01*
X403318Y826804D01*
X402251Y825026D01*
X400118Y824137D01*
X397984Y824137D01*
X395851Y825026D01*
X394784Y826804D01*
X394784Y828582D01*
X395851Y830360D01*
X397984Y831248D01*
G54D13*
X382340Y798737D02*
X382340Y812960D01*
X387674Y812960D01*
X389807Y812071D01*
X390874Y810293D01*
X390874Y801404D01*
X389807Y799626D01*
X387674Y798737D01*
X382340Y798737D01*
G54D13*
X394784Y812960D02*
X403318Y812960D01*
X402251Y811182D01*
X400118Y808515D01*
X397984Y804960D01*
X396918Y802293D01*
X396918Y798737D01*
G54D13*
X382340Y773337D02*
X382340Y787560D01*
X387674Y787560D01*
X389807Y786671D01*
X390874Y784893D01*
X390874Y776004D01*
X389807Y774226D01*
X387674Y773337D01*
X382340Y773337D01*
G54D13*
X403318Y784893D02*
X402251Y786671D01*
X400118Y787560D01*
X397984Y787560D01*
X395851Y786671D01*
X394784Y784893D01*
X394784Y780448D01*
X394784Y779560D01*
X397984Y781337D01*
X400118Y781337D01*
X402251Y780448D01*
X403318Y778671D01*
X403318Y776004D01*
X402251Y774226D01*
X400118Y773337D01*
X397984Y773337D01*
X395851Y774226D01*
X394784Y776004D01*
X394784Y780448D01*
G54D13*
X382340Y747937D02*
X382340Y762160D01*
X387674Y762160D01*
X389807Y761271D01*
X390874Y759493D01*
X390874Y750604D01*
X389807Y748826D01*
X387674Y747937D01*
X382340Y747937D01*
G54D13*
X403318Y762160D02*
X394784Y762160D01*
X394784Y755937D01*
X395851Y755937D01*
X397984Y756826D01*
X400118Y756826D01*
X402251Y755937D01*
X403318Y754160D01*
X403318Y750604D01*
X402251Y748826D01*
X400118Y747937D01*
X397984Y747937D01*
X395851Y748826D01*
X394784Y750604D01*
G54D13*
X382340Y722537D02*
X382340Y736760D01*
X387674Y736760D01*
X389807Y735871D01*
X390874Y734093D01*
X390874Y725204D01*
X389807Y723426D01*
X387674Y722537D01*
X382340Y722537D01*
G54D13*
X401184Y722537D02*
X401184Y736760D01*
X394784Y727871D01*
X394784Y726093D01*
X403318Y726093D01*
G54D13*
X382340Y697137D02*
X382340Y711360D01*
X387674Y711360D01*
X389807Y710471D01*
X390874Y708693D01*
X390874Y699804D01*
X389807Y698026D01*
X387674Y697137D01*
X382340Y697137D01*
G54D13*
X394784Y708693D02*
X395851Y710471D01*
X397984Y711360D01*
X400118Y711360D01*
X402251Y710471D01*
X403318Y708693D01*
X403318Y706915D01*
X402251Y705137D01*
X400118Y704248D01*
X402251Y703360D01*
X403318Y701582D01*
X403318Y699804D01*
X402251Y698026D01*
X400118Y697137D01*
X397984Y697137D01*
X395851Y698026D01*
X394784Y699804D01*
G54D13*
X382340Y671737D02*
X382340Y685960D01*
X387674Y685960D01*
X389807Y685071D01*
X390874Y683293D01*
X390874Y674404D01*
X389807Y672626D01*
X387674Y671737D01*
X382340Y671737D01*
G54D13*
X403318Y671737D02*
X394784Y671737D01*
X394784Y672626D01*
X395851Y674404D01*
X402251Y679737D01*
X403318Y681515D01*
X403318Y683293D01*
X402251Y685071D01*
X400118Y685960D01*
X397984Y685960D01*
X395851Y685071D01*
X394784Y683293D01*
G54D13*
X386607Y653448D02*
X390874Y653448D01*
X390874Y649004D01*
X389807Y647226D01*
X387674Y646337D01*
X385540Y646337D01*
X383407Y647226D01*
X382340Y649004D01*
X382340Y657893D01*
X383407Y659671D01*
X385540Y660560D01*
X387674Y660560D01*
X389807Y659671D01*
X390874Y657893D01*
G54D13*
X394784Y646337D02*
X394784Y660560D01*
X403318Y646337D01*
X403318Y660560D01*
G54D13*
X407228Y646337D02*
X407228Y660560D01*
X412562Y660560D01*
X414695Y659671D01*
X415762Y657893D01*
X415762Y649004D01*
X414695Y647226D01*
X412562Y646337D01*
X407228Y646337D01*
G54D13*
X386607Y628048D02*
X389807Y626271D01*
X390874Y624493D01*
X390874Y620937D01*
G54D13*
X382340Y620937D02*
X382340Y635160D01*
X387674Y635160D01*
X389807Y634271D01*
X390874Y632493D01*
X390874Y630715D01*
X389807Y628937D01*
X387674Y628048D01*
X382340Y628048D01*
G54D13*
X394784Y623604D02*
X395851Y621826D01*
X397984Y620937D01*
X400118Y620937D01*
X402251Y621826D01*
X403318Y623604D01*
X403318Y625382D01*
X402251Y627160D01*
X400118Y628048D01*
X397984Y628048D01*
X395851Y628937D01*
X394784Y630715D01*
X394784Y632493D01*
X395851Y634271D01*
X397984Y635160D01*
X400118Y635160D01*
X402251Y634271D01*
X403318Y632493D01*
G54D13*
X411495Y620937D02*
X411495Y635160D01*
G54D13*
X407228Y635160D02*
X415762Y635160D01*
G54D13*
X386607Y602648D02*
X389807Y600871D01*
X390874Y599093D01*
X390874Y595537D01*
G54D13*
X382340Y595537D02*
X382340Y609760D01*
X387674Y609760D01*
X389807Y608871D01*
X390874Y607093D01*
X390874Y605315D01*
X389807Y603537D01*
X387674Y602648D01*
X382340Y602648D01*
G54D13*
X394784Y609760D02*
X405451Y595537D01*
G54D13*
X394784Y595537D02*
X405451Y609760D01*
G54D13*
X417896Y607093D02*
X417896Y598204D01*
X416829Y596426D01*
X414696Y595537D01*
X412562Y595537D01*
X410429Y596426D01*
X409362Y598204D01*
X409362Y607093D01*
X410429Y608871D01*
X412562Y609760D01*
X414696Y609760D01*
X416829Y608871D01*
X417896Y607093D01*
G54D13*
X386607Y570137D02*
X386607Y584360D01*
G54D13*
X382340Y584360D02*
X390874Y584360D01*
G54D13*
X394784Y584360D02*
X405451Y570137D01*
G54D13*
X394784Y570137D02*
X405451Y584360D01*
G54D13*
X409362Y579026D02*
X414696Y584360D01*
X414696Y570137D01*
G54D14*
X465200Y661791D02*
X483200Y661791D01*
X483200Y627791D01*
X465200Y627791D01*
X465200Y661791D01*
G54D15*
X475219Y659066D02*
X477886Y656399D01*
X470775Y656399D01*
G54D15*
X476553Y650176D02*
X472108Y650176D01*
X471219Y650709D01*
X470775Y651776D01*
X470775Y652843D01*
X471219Y653909D01*
X472108Y654443D01*
X476553Y654443D01*
X477442Y653909D01*
X477886Y652843D01*
X477886Y651776D01*
X477442Y650709D01*
X476553Y650176D01*
G54D15*
X476553Y643953D02*
X472108Y643953D01*
X471219Y644486D01*
X470775Y645553D01*
X470775Y646620D01*
X471219Y647686D01*
X472108Y648220D01*
X476553Y648220D01*
X477442Y647686D01*
X477886Y646620D01*
X477886Y645553D01*
X477442Y644486D01*
X476553Y643953D01*
G54D15*
X470775Y641997D02*
X474775Y641997D01*
G54D15*
X473886Y641997D02*
X474508Y641463D01*
X474775Y640397D01*
X474508Y639330D01*
X473886Y638797D01*
X470775Y638797D01*
G54D15*
X470775Y636841D02*
X477886Y636841D01*
X477886Y633107D01*
G54D15*
X474331Y636841D02*
X474331Y633107D01*
G54D14*
X508700Y746700D02*
X526700Y746700D01*
X526700Y712700D01*
X508700Y712700D01*
X508700Y746700D01*
G54D15*
X518719Y743975D02*
X521386Y741308D01*
X514275Y741308D01*
G54D15*
X520053Y735085D02*
X515608Y735085D01*
X514719Y735619D01*
X514275Y736685D01*
X514275Y737752D01*
X514719Y738819D01*
X515608Y739352D01*
X520053Y739352D01*
X520942Y738819D01*
X521386Y737752D01*
X521386Y736685D01*
X520942Y735619D01*
X520053Y735085D01*
G54D15*
X518275Y733129D02*
X512497Y733129D01*
G54D15*
X518275Y729929D02*
X514275Y729929D01*
G54D15*
X515164Y729929D02*
X514453Y730462D01*
X514275Y731529D01*
X514453Y732596D01*
X515164Y733129D01*
X518275Y733129D01*
G54D15*
X514275Y727973D02*
X521386Y727973D01*
X521386Y724240D01*
G54D15*
X517831Y727973D02*
X517831Y724240D01*
G54D10*
X371900Y157500D02*
X446900Y157500D01*
X446900Y100000D01*
G54D10*
X446900Y100000D02*
X371900Y100000D01*
X371900Y157500D01*
G54D10*
X409400Y100000D02*
X390650Y100000D01*
X390650Y105000D01*
X428150Y105000D01*
X428150Y100000D01*
G54D10*
X547000Y990000D02*
X700000Y990000D01*
X700000Y702000D01*
X547000Y702000D01*
X547000Y990000D01*
G54D10*
X547000Y900000D02*
X700000Y900000D01*
G54D15*
X560133Y707168D02*
X562267Y707168D01*
X562267Y704946D01*
X561733Y704057D01*
X560667Y703612D01*
X559600Y703612D01*
X558533Y704057D01*
X558000Y704946D01*
X558000Y709390D01*
X558533Y710279D01*
X559600Y710724D01*
X560667Y710724D01*
X561733Y710279D01*
X562267Y709390D01*
G54D15*
X564223Y703612D02*
X564223Y710724D01*
X568490Y703612D01*
X568490Y710724D01*
G54D15*
X570446Y703612D02*
X570446Y710724D01*
X573113Y710724D01*
X574179Y710279D01*
X574713Y709390D01*
X574713Y704946D01*
X574179Y704057D01*
X573113Y703612D01*
X570446Y703612D01*
G54D15*
X587667Y757333D02*
X587133Y756444D01*
X586067Y756000D01*
X585000Y756000D01*
X583933Y756444D01*
X583400Y757333D01*
X583400Y761778D01*
X583933Y762667D01*
X585000Y763111D01*
X586067Y763111D01*
X587133Y762667D01*
X587667Y761778D01*
G54D15*
X589623Y757333D02*
X590156Y756444D01*
X591223Y756000D01*
X592290Y756000D01*
X593356Y756444D01*
X593890Y757333D01*
X593890Y758222D01*
X593356Y759111D01*
X592290Y759556D01*
X591223Y759556D01*
X590156Y760000D01*
X589623Y760889D01*
X589623Y761778D01*
X590156Y762667D01*
X591223Y763111D01*
X592290Y763111D01*
X593356Y762667D01*
X593890Y761778D01*
G54D15*
X595846Y756000D02*
X595846Y763111D01*
X600113Y756000D01*
X600113Y763111D01*
G54D15*
X592667Y704946D02*
X592133Y704057D01*
X591067Y703612D01*
X590000Y703612D01*
X588933Y704057D01*
X588400Y704946D01*
X588400Y709390D01*
X588933Y710279D01*
X590000Y710724D01*
X591067Y710724D01*
X592133Y710279D01*
X592667Y709390D01*
G54D15*
X598356Y703612D02*
X594623Y703612D01*
X594623Y710724D01*
X598356Y710724D01*
G54D15*
X594623Y707168D02*
X598356Y707168D01*
G54D15*
X608800Y704946D02*
X609333Y704057D01*
X610400Y703612D01*
X611467Y703612D01*
X612533Y704057D01*
X613067Y704946D01*
X613067Y705835D01*
X612533Y706724D01*
X611467Y707168D01*
X610400Y707168D01*
X609333Y707612D01*
X608800Y708501D01*
X608800Y709390D01*
X609333Y710279D01*
X610400Y710724D01*
X611467Y710724D01*
X612533Y710279D01*
X613067Y709390D01*
G54D15*
X619290Y704946D02*
X618756Y704057D01*
X617690Y703612D01*
X616623Y703612D01*
X615556Y704057D01*
X615023Y704946D01*
X615023Y709390D01*
X615556Y710279D01*
X616623Y710724D01*
X617690Y710724D01*
X618756Y710279D01*
X619290Y709390D01*
G54D15*
X621246Y703612D02*
X621246Y710724D01*
G54D15*
X621246Y705835D02*
X625513Y710724D01*
G54D15*
X622846Y707168D02*
X625513Y703612D01*
G54D15*
X634200Y703612D02*
X634200Y710724D01*
X636867Y706279D01*
X639533Y710724D01*
X639533Y703612D01*
G54D15*
X641489Y703612D02*
X641489Y710724D01*
G54D15*
X643445Y704946D02*
X643978Y704057D01*
X645045Y703612D01*
X646112Y703612D01*
X647178Y704057D01*
X647712Y704946D01*
X647712Y705835D01*
X647178Y706724D01*
X646112Y707168D01*
X645045Y707168D01*
X643978Y707612D01*
X643445Y708501D01*
X643445Y709390D01*
X643978Y710279D01*
X645045Y710724D01*
X646112Y710724D01*
X647178Y710279D01*
X647712Y709390D01*
G54D15*
X653935Y709390D02*
X653935Y704946D01*
X653401Y704057D01*
X652335Y703612D01*
X651268Y703612D01*
X650201Y704057D01*
X649668Y704946D01*
X649668Y709390D01*
X650201Y710279D01*
X651268Y710724D01*
X652335Y710724D01*
X653401Y710279D01*
X653935Y709390D01*
G54D15*
X558000Y763111D02*
X560667Y756000D01*
X563333Y763111D01*
G54D15*
X567956Y759733D02*
X566889Y760000D01*
X565822Y759733D01*
X565289Y758844D01*
X565289Y757067D01*
X565822Y756178D01*
X566889Y756000D01*
X567956Y756178D01*
G54D15*
X572579Y759733D02*
X571512Y760000D01*
X570445Y759733D01*
X569912Y758844D01*
X569912Y757067D01*
X570445Y756178D01*
X571512Y756000D01*
X572579Y756178D01*
G54D15*
X608800Y756000D02*
X608800Y763111D01*
X611467Y758667D01*
X614133Y763111D01*
X614133Y756000D01*
G54D15*
X620356Y761778D02*
X620356Y757333D01*
X619822Y756444D01*
X618756Y756000D01*
X617689Y756000D01*
X616622Y756444D01*
X616089Y757333D01*
X616089Y761778D01*
X616622Y762667D01*
X617689Y763111D01*
X618756Y763111D01*
X619822Y762667D01*
X620356Y761778D01*
G54D15*
X622312Y757333D02*
X622845Y756444D01*
X623912Y756000D01*
X624979Y756000D01*
X626045Y756444D01*
X626579Y757333D01*
X626579Y758222D01*
X626045Y759111D01*
X624979Y759556D01*
X623912Y759556D01*
X622845Y760000D01*
X622312Y760889D01*
X622312Y761778D01*
X622845Y762667D01*
X623912Y763111D01*
X624979Y763111D01*
X626045Y762667D01*
X626579Y761778D01*
G54D15*
X628535Y756000D02*
X628535Y763111D01*
G54D15*
X638200Y756000D02*
X638200Y763111D01*
G54D15*
X642289Y759556D02*
X643889Y758667D01*
X644423Y757778D01*
X644423Y756000D01*
G54D15*
X640156Y756000D02*
X640156Y763111D01*
X642823Y763111D01*
X643889Y762667D01*
X644423Y761778D01*
X644423Y760889D01*
X643889Y760000D01*
X642823Y759556D01*
X640156Y759556D01*
G54D15*
X648512Y757333D02*
X651179Y756000D01*
G54D15*
X650646Y761778D02*
X650646Y757333D01*
X650112Y756444D01*
X649046Y756000D01*
X647979Y756000D01*
X646912Y756444D01*
X646379Y757333D01*
X646379Y761778D01*
X646912Y762667D01*
X647979Y763111D01*
X649046Y763111D01*
X650112Y762667D01*
X650646Y761778D01*
G54D15*
X454267Y705778D02*
X454267Y701333D01*
X453733Y700444D01*
X452667Y700000D01*
X451600Y700000D01*
X450533Y700444D01*
X450000Y701333D01*
X450000Y705778D01*
X450533Y706667D01*
X451600Y707111D01*
X452667Y707111D01*
X453733Y706667D01*
X454267Y705778D01*
G54D15*
X460490Y701333D02*
X459956Y700444D01*
X458890Y700000D01*
X457823Y700000D01*
X456756Y700444D01*
X456223Y701333D01*
X456223Y705778D01*
X456756Y706667D01*
X457823Y707111D01*
X458890Y707111D01*
X459956Y706667D01*
X460490Y705778D01*
G54D15*
X466713Y700000D02*
X462446Y700000D01*
X462446Y700444D01*
X462979Y701333D01*
X466179Y704000D01*
X466713Y704889D01*
X466713Y705778D01*
X466179Y706667D01*
X465113Y707111D01*
X464046Y707111D01*
X462979Y706667D01*
X462446Y705778D01*
G54D15*
X468669Y700000D02*
X468669Y707111D01*
X471336Y707111D01*
X472402Y706667D01*
X472936Y705778D01*
X472936Y704889D01*
X472402Y704000D01*
X471336Y703556D01*
X472402Y703111D01*
X472936Y702222D01*
X472936Y701333D01*
X472402Y700444D01*
X471336Y700000D01*
X468669Y700000D01*
G54D15*
X468669Y703556D02*
X471336Y703556D01*
G54D15*
X454267Y756578D02*
X454267Y752133D01*
X453733Y751244D01*
X452667Y750800D01*
X451600Y750800D01*
X450533Y751244D01*
X450000Y752133D01*
X450000Y756578D01*
X450533Y757467D01*
X451600Y757911D01*
X452667Y757911D01*
X453733Y757467D01*
X454267Y756578D01*
G54D15*
X460490Y752133D02*
X459956Y751244D01*
X458890Y750800D01*
X457823Y750800D01*
X456756Y751244D01*
X456223Y752133D01*
X456223Y756578D01*
X456756Y757467D01*
X457823Y757911D01*
X458890Y757911D01*
X459956Y757467D01*
X460490Y756578D01*
G54D15*
X466713Y756578D02*
X466713Y752133D01*
X466179Y751244D01*
X465113Y750800D01*
X464046Y750800D01*
X462979Y751244D01*
X462446Y752133D01*
X462446Y756578D01*
X462979Y757467D01*
X464046Y757911D01*
X465113Y757911D01*
X466179Y757467D01*
X466713Y756578D01*
G54D15*
X468669Y750800D02*
X468669Y757911D01*
X471336Y757911D01*
X472402Y757467D01*
X472936Y756578D01*
X472936Y755689D01*
X472402Y754800D01*
X471336Y754356D01*
X472402Y753911D01*
X472936Y753022D01*
X472936Y752133D01*
X472402Y751244D01*
X471336Y750800D01*
X468669Y750800D01*
G54D15*
X468669Y754356D02*
X471336Y754356D01*
G54D15*
X454267Y781978D02*
X454267Y777533D01*
X453733Y776644D01*
X452667Y776200D01*
X451600Y776200D01*
X450533Y776644D01*
X450000Y777533D01*
X450000Y781978D01*
X450533Y782867D01*
X451600Y783311D01*
X452667Y783311D01*
X453733Y782867D01*
X454267Y781978D01*
G54D15*
X460490Y777533D02*
X459956Y776644D01*
X458890Y776200D01*
X457823Y776200D01*
X456756Y776644D01*
X456223Y777533D01*
X456223Y781978D01*
X456756Y782867D01*
X457823Y783311D01*
X458890Y783311D01*
X459956Y782867D01*
X460490Y781978D01*
G54D15*
X466713Y781978D02*
X466713Y777533D01*
X466179Y776644D01*
X465113Y776200D01*
X464046Y776200D01*
X462979Y776644D01*
X462446Y777533D01*
X462446Y781978D01*
X462979Y782867D01*
X464046Y783311D01*
X465113Y783311D01*
X466179Y782867D01*
X466713Y781978D01*
G54D15*
X468669Y776200D02*
X471336Y783311D01*
X474002Y776200D01*
G54D15*
X469736Y778867D02*
X472936Y778867D01*
G54D15*
X454267Y858178D02*
X454267Y853733D01*
X453733Y852844D01*
X452667Y852400D01*
X451600Y852400D01*
X450533Y852844D01*
X450000Y853733D01*
X450000Y858178D01*
X450533Y859067D01*
X451600Y859511D01*
X452667Y859511D01*
X453733Y859067D01*
X454267Y858178D01*
G54D15*
X460490Y853733D02*
X459956Y852844D01*
X458890Y852400D01*
X457823Y852400D01*
X456756Y852844D01*
X456223Y853733D01*
X456223Y858178D01*
X456756Y859067D01*
X457823Y859511D01*
X458890Y859511D01*
X459956Y859067D01*
X460490Y858178D01*
G54D15*
X462446Y856844D02*
X465113Y859511D01*
X465113Y852400D01*
G54D15*
X467069Y852400D02*
X469736Y859511D01*
X472402Y852400D01*
G54D15*
X468136Y855067D02*
X471336Y855067D01*
G54D15*
X454267Y883578D02*
X454267Y879133D01*
X453733Y878244D01*
X452667Y877800D01*
X451600Y877800D01*
X450533Y878244D01*
X450000Y879133D01*
X450000Y883578D01*
X450533Y884467D01*
X451600Y884911D01*
X452667Y884911D01*
X453733Y884467D01*
X454267Y883578D01*
G54D15*
X460490Y879133D02*
X459956Y878244D01*
X458890Y877800D01*
X457823Y877800D01*
X456756Y878244D01*
X456223Y879133D01*
X456223Y883578D01*
X456756Y884467D01*
X457823Y884911D01*
X458890Y884911D01*
X459956Y884467D01*
X460490Y883578D01*
G54D15*
X462446Y882244D02*
X465113Y884911D01*
X465113Y877800D01*
G54D15*
X467069Y877800D02*
X467069Y884911D01*
X469736Y884911D01*
X470802Y884467D01*
X471336Y883578D01*
X471336Y882689D01*
X470802Y881800D01*
X469736Y881356D01*
X470802Y880911D01*
X471336Y880022D01*
X471336Y879133D01*
X470802Y878244D01*
X469736Y877800D01*
X467069Y877800D01*
G54D15*
X467069Y881356D02*
X469736Y881356D01*
G54D15*
X454267Y908978D02*
X454267Y904533D01*
X453733Y903644D01*
X452667Y903200D01*
X451600Y903200D01*
X450533Y903644D01*
X450000Y904533D01*
X450000Y908978D01*
X450533Y909867D01*
X451600Y910311D01*
X452667Y910311D01*
X453733Y909867D01*
X454267Y908978D01*
G54D15*
X460490Y904533D02*
X459956Y903644D01*
X458890Y903200D01*
X457823Y903200D01*
X456756Y903644D01*
X456223Y904533D01*
X456223Y908978D01*
X456756Y909867D01*
X457823Y910311D01*
X458890Y910311D01*
X459956Y909867D01*
X460490Y908978D01*
G54D15*
X466713Y903200D02*
X462446Y903200D01*
X462446Y903644D01*
X462979Y904533D01*
X466179Y907200D01*
X466713Y908089D01*
X466713Y908978D01*
X466179Y909867D01*
X465113Y910311D01*
X464046Y910311D01*
X462979Y909867D01*
X462446Y908978D01*
G54D15*
X468669Y903200D02*
X471336Y910311D01*
X474002Y903200D01*
G54D15*
X469736Y905867D02*
X472936Y905867D01*
G54D14*
X529700Y746700D02*
X547700Y746700D01*
X547700Y712700D01*
X529700Y712700D01*
X529700Y746700D01*
G54D15*
X539719Y743975D02*
X542386Y741308D01*
X535275Y741308D01*
G54D15*
X541053Y735085D02*
X536608Y735085D01*
X535719Y735619D01*
X535275Y736685D01*
X535275Y737752D01*
X535719Y738819D01*
X536608Y739352D01*
X541053Y739352D01*
X541942Y738819D01*
X542386Y737752D01*
X542386Y736685D01*
X541942Y735619D01*
X541053Y735085D01*
G54D15*
X541053Y728862D02*
X536608Y728862D01*
X535719Y729396D01*
X535275Y730462D01*
X535275Y731529D01*
X535719Y732596D01*
X536608Y733129D01*
X541053Y733129D01*
X541942Y732596D01*
X542386Y731529D01*
X542386Y730462D01*
X541942Y729396D01*
X541053Y728862D01*
G54D15*
X535275Y726906D02*
X539275Y726906D01*
G54D15*
X538386Y726906D02*
X539008Y726373D01*
X539275Y725306D01*
X539008Y724239D01*
X538386Y723706D01*
X535275Y723706D01*
G54D15*
X535275Y721750D02*
X542386Y721750D01*
X542386Y718017D01*
G54D15*
X538831Y721750D02*
X538831Y718017D01*
G54D14*
X497700Y683700D02*
X497700Y709700D01*
X547700Y709700D01*
X547700Y683700D01*
X497700Y683700D01*
G54D16*
X513732Y697834D02*
X515732Y699834D01*
X515732Y694500D01*
G54D16*
X520399Y698834D02*
X520399Y695500D01*
X519999Y694834D01*
X519199Y694500D01*
X518399Y694500D01*
X517599Y694834D01*
X517199Y695500D01*
X517199Y698834D01*
X517599Y699500D01*
X518399Y699834D01*
X519199Y699834D01*
X519999Y699500D01*
X520399Y698834D01*
G54D16*
X525066Y698834D02*
X525066Y695500D01*
X524666Y694834D01*
X523866Y694500D01*
X523066Y694500D01*
X522266Y694834D01*
X521866Y695500D01*
X521866Y698834D01*
X522266Y699500D01*
X523066Y699834D01*
X523866Y699834D01*
X524666Y699500D01*
X525066Y698834D01*
G54D16*
X526533Y697500D02*
X526533Y693167D01*
G54D16*
X528933Y697500D02*
X528933Y694500D01*
G54D16*
X528933Y695167D02*
X528533Y694634D01*
X527733Y694500D01*
X526933Y694634D01*
X526533Y695167D01*
X526533Y697500D01*
G54D16*
X530400Y694500D02*
X530400Y699834D01*
X533200Y699834D01*
G54D16*
X530400Y697167D02*
X533200Y697167D01*
G54D15*
X450000Y674600D02*
X450000Y681711D01*
G54D15*
X451956Y674600D02*
X451956Y681711D01*
X456223Y674600D01*
X456223Y681711D01*
G54D15*
X460312Y674600D02*
X460312Y681711D01*
G54D15*
X458179Y681711D02*
X462446Y681711D01*
G54D15*
X468669Y680378D02*
X468669Y675933D01*
X468135Y675044D01*
X467069Y674600D01*
X466002Y674600D01*
X464935Y675044D01*
X464402Y675933D01*
X464402Y680378D01*
X464935Y681267D01*
X466002Y681711D01*
X467069Y681711D01*
X468135Y681267D01*
X468669Y680378D01*
G54D14*
X558700Y603791D02*
X558700Y638791D01*
X493700Y638791D01*
X493700Y603791D01*
X558700Y603791D01*
G54D15*
X510489Y628305D02*
X507822Y635416D01*
X505155Y628305D01*
G54D15*
X503200Y635416D02*
X503200Y631416D01*
G54D15*
X503200Y630083D02*
X503200Y630083D01*
G54D15*
X501244Y635416D02*
X501244Y631416D01*
G54D15*
X501244Y632305D02*
X500710Y631683D01*
X499644Y631416D01*
X498577Y631683D01*
X498044Y632305D01*
X498044Y635416D01*
G54D15*
X536689Y629372D02*
X534022Y636483D01*
X531355Y629372D01*
G54D15*
X526200Y635416D02*
X526200Y633638D01*
X526733Y632749D01*
X527800Y632483D01*
X528866Y632749D01*
X529400Y633638D01*
X529400Y635416D01*
X528866Y636305D01*
X527800Y636483D01*
X526733Y636305D01*
X526200Y635416D01*
G54D15*
X521044Y632483D02*
X521044Y636483D01*
G54D15*
X521044Y635594D02*
X521577Y636305D01*
X522644Y636483D01*
X523710Y636305D01*
X524244Y635594D01*
X524244Y632483D01*
G54D15*
X518021Y629372D02*
X518021Y636038D01*
X517488Y636483D01*
X516954Y636305D01*
G54D15*
X519088Y632483D02*
X516954Y632483D01*
G54D15*
X554273Y632629D02*
X552139Y632629D01*
X552139Y634851D01*
X552673Y635740D01*
X553739Y636185D01*
X554806Y636185D01*
X555873Y635740D01*
X556406Y634851D01*
X556406Y630407D01*
X555873Y629518D01*
X554806Y629074D01*
X553739Y629074D01*
X552673Y629518D01*
X552139Y630407D01*
G54D15*
X550183Y636185D02*
X550183Y629074D01*
X545916Y636185D01*
X545916Y629074D01*
G54D15*
X543960Y636185D02*
X543960Y629074D01*
X541293Y629074D01*
X540227Y629518D01*
X539693Y630407D01*
X539693Y634851D01*
X540227Y635740D01*
X541293Y636185D01*
X543960Y636185D01*
G54D15*
X556406Y613960D02*
X553739Y606849D01*
X551073Y613960D01*
G54D15*
X555339Y611293D02*
X552139Y611293D01*
G54D15*
X549117Y613960D02*
X549117Y606849D01*
X546450Y611293D01*
X543784Y606849D01*
X543784Y613960D01*
G54D15*
X541828Y612626D02*
X541295Y613515D01*
X540228Y613960D01*
X539161Y613960D01*
X538095Y613515D01*
X537561Y612626D01*
X537561Y611738D01*
X538095Y610849D01*
X539161Y610404D01*
X540228Y610404D01*
X541295Y609960D01*
X541828Y609071D01*
X541828Y608182D01*
X541295Y607293D01*
X540228Y606849D01*
X539161Y606849D01*
X538095Y607293D01*
X537561Y608182D01*
G54D15*
X535605Y609515D02*
X532938Y606849D01*
X532938Y613960D01*
G54D15*
X530982Y609515D02*
X528315Y606849D01*
X528315Y613960D01*
G54D15*
X526359Y609515D02*
X523692Y606849D01*
X523692Y613960D01*
G54D15*
X521736Y606849D02*
X517469Y606849D01*
X518003Y607738D01*
X519069Y609071D01*
X520136Y610849D01*
X520669Y612182D01*
X520669Y613960D01*
G54D15*
X515513Y610849D02*
X511246Y610849D01*
G54D15*
X509290Y608182D02*
X508757Y607293D01*
X507690Y606849D01*
X506623Y606849D01*
X505557Y607293D01*
X505023Y608182D01*
X505023Y609071D01*
X505557Y609960D01*
X506623Y610404D01*
X505557Y610849D01*
X505023Y611738D01*
X505023Y612626D01*
X505557Y613515D01*
X506623Y613960D01*
X507690Y613960D01*
X508757Y613515D01*
X509290Y612626D01*
G54D15*
X503067Y613960D02*
X503067Y613960D01*
G54D15*
X501111Y608182D02*
X500578Y607293D01*
X499511Y606849D01*
X498444Y606849D01*
X497378Y607293D01*
X496844Y608182D01*
X496844Y609071D01*
X497378Y609960D01*
X498444Y610404D01*
X497378Y610849D01*
X496844Y611738D01*
X496844Y612626D01*
X497378Y613515D01*
X498444Y613960D01*
X499511Y613960D01*
X500578Y613515D01*
X501111Y612626D01*
G54D14*
X520700Y662291D02*
X520700Y680291D01*
X554700Y680291D01*
X554700Y662291D01*
X520700Y662291D01*
G54D15*
X523425Y672310D02*
X526091Y674977D01*
X526091Y667866D01*
G54D15*
X532314Y673644D02*
X532314Y669199D01*
X531781Y668310D01*
X530714Y667866D01*
X529648Y667866D01*
X528581Y668310D01*
X528048Y669199D01*
X528048Y673644D01*
X528581Y674533D01*
X529648Y674977D01*
X530714Y674977D01*
X531781Y674533D01*
X532314Y673644D01*
G54D15*
X538537Y673644D02*
X538537Y669199D01*
X538004Y668310D01*
X536937Y667866D01*
X535871Y667866D01*
X534804Y668310D01*
X534271Y669199D01*
X534271Y673644D01*
X534804Y674533D01*
X535871Y674977D01*
X536937Y674977D01*
X538004Y674533D01*
X538537Y673644D01*
G54D15*
X540494Y667866D02*
X540494Y671866D01*
G54D15*
X540494Y670977D02*
X541027Y671599D01*
X542094Y671866D01*
X543160Y671599D01*
X543694Y670977D01*
X543694Y667866D01*
G54D15*
X545650Y667866D02*
X545650Y674977D01*
X549383Y674977D01*
G54D15*
X545650Y671422D02*
X549383Y671422D01*
G54D14*
X445200Y661791D02*
X463200Y661791D01*
X463200Y627791D01*
X445200Y627791D01*
X445200Y661791D01*
G54D15*
X455219Y659066D02*
X457886Y656399D01*
X450775Y656399D01*
G54D15*
X456553Y650176D02*
X452108Y650176D01*
X451219Y650709D01*
X450775Y651776D01*
X450775Y652843D01*
X451219Y653909D01*
X452108Y654443D01*
X456553Y654443D01*
X457442Y653909D01*
X457886Y652843D01*
X457886Y651776D01*
X457442Y650709D01*
X456553Y650176D01*
G54D15*
X454775Y648220D02*
X448997Y648220D01*
G54D15*
X454775Y645020D02*
X450775Y645020D01*
G54D15*
X451664Y645020D02*
X450953Y645553D01*
X450775Y646620D01*
X450953Y647686D01*
X451664Y648220D01*
X454775Y648220D01*
G54D15*
X450775Y643064D02*
X457886Y643064D01*
X457886Y639330D01*
G54D15*
X454331Y643064D02*
X454331Y639330D01*
G54D17*
X131900Y347000D02*
X341900Y347000D01*
X341900Y100000D01*
X131900Y100000D01*
X131900Y347000D01*
G54D15*
X143900Y127000D02*
X146567Y134111D01*
X149233Y127000D01*
G54D15*
X144967Y129667D02*
X148167Y129667D01*
G54D15*
X151189Y130111D02*
X155456Y130111D01*
G54D15*
X153322Y131889D02*
X153322Y128333D01*
G54D15*
X169300Y127000D02*
X171967Y134111D01*
X174633Y127000D01*
G54D15*
X170367Y129667D02*
X173567Y129667D01*
G54D15*
X176589Y130111D02*
X180856Y130111D01*
G54D15*
X201900Y127000D02*
X201900Y134111D01*
X204567Y134111D01*
X205633Y133667D01*
X206167Y132778D01*
X206167Y131889D01*
X205633Y131000D01*
X204567Y130556D01*
X205633Y130111D01*
X206167Y129222D01*
X206167Y128333D01*
X205633Y127444D01*
X204567Y127000D01*
X201900Y127000D01*
G54D15*
X201900Y130556D02*
X204567Y130556D01*
G54D15*
X208123Y130111D02*
X212390Y130111D01*
G54D15*
X210256Y131889D02*
X210256Y128333D01*
G54D15*
X227300Y127000D02*
X227300Y134111D01*
X229967Y134111D01*
X231033Y133667D01*
X231567Y132778D01*
X231567Y131889D01*
X231033Y131000D01*
X229967Y130556D01*
X231033Y130111D01*
X231567Y129222D01*
X231567Y128333D01*
X231033Y127444D01*
X229967Y127000D01*
X227300Y127000D01*
G54D15*
X227300Y130556D02*
X229967Y130556D01*
G54D15*
X233523Y130111D02*
X237790Y130111D01*
G54D15*
X143900Y307000D02*
X143900Y314111D01*
G54D15*
X145856Y307000D02*
X145856Y311000D01*
G54D15*
X145856Y310111D02*
X146389Y310733D01*
X147456Y311000D01*
X148523Y310733D01*
X149056Y310111D01*
X149056Y307000D01*
G54D15*
X154212Y307000D02*
X154212Y314111D01*
X151012Y309667D01*
X151012Y308778D01*
X155279Y308778D01*
G54D15*
X169300Y307000D02*
X169300Y314111D01*
G54D15*
X171256Y307000D02*
X171256Y311000D01*
G54D15*
X171256Y310111D02*
X171789Y310733D01*
X172856Y311000D01*
X173923Y310733D01*
X174456Y310111D01*
X174456Y307000D01*
G54D15*
X176412Y312778D02*
X176945Y313667D01*
X178012Y314111D01*
X179079Y314111D01*
X180145Y313667D01*
X180679Y312778D01*
X180679Y311889D01*
X180145Y311000D01*
X179079Y310556D01*
X180145Y310111D01*
X180679Y309222D01*
X180679Y308333D01*
X180145Y307444D01*
X179079Y307000D01*
X178012Y307000D01*
X176945Y307444D01*
X176412Y308333D01*
G54D15*
X201900Y307000D02*
X201900Y314111D01*
G54D15*
X203856Y307000D02*
X203856Y311000D01*
G54D15*
X203856Y310111D02*
X204389Y310733D01*
X205456Y311000D01*
X206523Y310733D01*
X207056Y310111D01*
X207056Y307000D01*
G54D15*
X213279Y307000D02*
X209012Y307000D01*
X209012Y307444D01*
X209545Y308333D01*
X212745Y311000D01*
X213279Y311889D01*
X213279Y312778D01*
X212745Y313667D01*
X211679Y314111D01*
X210612Y314111D01*
X209545Y313667D01*
X209012Y312778D01*
G54D15*
X227300Y307000D02*
X227300Y314111D01*
G54D15*
X229256Y307000D02*
X229256Y311000D01*
G54D15*
X229256Y310111D02*
X229789Y310733D01*
X230856Y311000D01*
X231923Y310733D01*
X232456Y310111D01*
X232456Y307000D01*
G54D15*
X234412Y311444D02*
X237079Y314111D01*
X237079Y307000D01*
G54D18*
X281367Y313111D02*
X286700Y313111D01*
G54D18*
X314367Y313111D02*
X319700Y313111D01*
G54D18*
X317034Y315333D02*
X317034Y310889D01*
G54D14*
X295817Y392999D02*
X287917Y392999D01*
G54D14*
X305317Y392999D02*
X313317Y392999D01*
G54D14*
X299117Y380299D02*
X299117Y405699D01*
X305417Y405699D01*
X305417Y380299D01*
X299117Y380299D01*
G54D14*
X326017Y372299D02*
X326017Y365999D01*
G54D14*
X322817Y369099D02*
X329217Y369099D01*
G54D14*
X295917Y405699D02*
X295917Y380299D01*
G54D14*
G75*
G01X335417Y392999D02*
G03X335417Y392999I-35000J0D01*
G01*
G54D14*
X376508Y379690D02*
X376508Y387590D01*
G54D14*
X376508Y370190D02*
X376508Y362190D01*
G54D14*
X363808Y376390D02*
X389208Y376390D01*
X389208Y370090D01*
X363808Y370090D01*
X363808Y376390D01*
G54D14*
X355808Y349490D02*
X349508Y349490D01*
G54D14*
X352608Y352690D02*
X352608Y346290D01*
G54D14*
X389208Y379590D02*
X363808Y379590D01*
G54D14*
G75*
G01X376508Y340090D02*
G03X376508Y340090I0J35000D01*
G01*
G54D10*
X6700Y810600D02*
X165700Y810600D01*
X165700Y601600D01*
X6700Y601600D01*
X6700Y810600D01*
G54D18*
X117928Y619200D02*
X121261Y610311D01*
X124594Y619200D01*
G54D18*
X130372Y614978D02*
X129038Y615311D01*
X127705Y614978D01*
X127038Y613867D01*
X127038Y611644D01*
X127705Y610533D01*
X129038Y610311D01*
X130372Y610533D01*
G54D18*
X136149Y614978D02*
X134816Y615311D01*
X133482Y614978D01*
X132816Y613867D01*
X132816Y611644D01*
X133482Y610533D01*
X134816Y610311D01*
X136149Y610533D01*
G54D18*
X120330Y640155D02*
X122996Y640155D01*
X122996Y637378D01*
X122330Y636267D01*
X120996Y635711D01*
X119663Y635711D01*
X118330Y636267D01*
X117663Y637378D01*
X117663Y642933D01*
X118330Y644044D01*
X119663Y644600D01*
X120996Y644600D01*
X122330Y644044D01*
X122996Y642933D01*
G54D18*
X125440Y635711D02*
X125440Y644600D01*
X130773Y635711D01*
X130773Y644600D01*
G54D18*
X133217Y635711D02*
X133217Y644600D01*
X136550Y644600D01*
X137884Y644044D01*
X138550Y642933D01*
X138550Y637378D01*
X137884Y636267D01*
X136550Y635711D01*
X133217Y635711D01*
G54D18*
X117737Y662778D02*
X118404Y661667D01*
X119737Y661111D01*
X121070Y661111D01*
X122404Y661667D01*
X123070Y662778D01*
X123070Y663889D01*
X122404Y665000D01*
X121070Y665555D01*
X119737Y665555D01*
X118404Y666111D01*
X117737Y667222D01*
X117737Y668333D01*
X118404Y669444D01*
X119737Y670000D01*
X121070Y670000D01*
X122404Y669444D01*
X123070Y668333D01*
G54D18*
X130847Y662778D02*
X130181Y661667D01*
X128847Y661111D01*
X127514Y661111D01*
X126181Y661667D01*
X125514Y662778D01*
X125514Y668333D01*
X126181Y669444D01*
X127514Y670000D01*
X128847Y670000D01*
X130181Y669444D01*
X130847Y668333D01*
G54D18*
X133291Y670000D02*
X133291Y661111D01*
X137958Y661111D01*
G54D18*
X117533Y688178D02*
X118200Y687067D01*
X119533Y686511D01*
X120866Y686511D01*
X122200Y687067D01*
X122866Y688178D01*
X122866Y689289D01*
X122200Y690400D01*
X120866Y690955D01*
X119533Y690955D01*
X118200Y691511D01*
X117533Y692622D01*
X117533Y693733D01*
X118200Y694844D01*
X119533Y695400D01*
X120866Y695400D01*
X122200Y694844D01*
X122866Y693733D01*
G54D18*
X125310Y686511D02*
X125310Y695400D01*
X128643Y695400D01*
X129977Y694844D01*
X130643Y693733D01*
X130643Y688178D01*
X129977Y687067D01*
X128643Y686511D01*
X125310Y686511D01*
G54D18*
X133087Y686511D02*
X136420Y695400D01*
X139754Y686511D01*
G54D18*
X134420Y689844D02*
X138420Y689844D01*
G54D18*
X118204Y788110D02*
X118204Y796999D01*
G54D18*
X120648Y788110D02*
X120648Y796999D01*
X125981Y788110D01*
X125981Y796999D01*
G54D18*
X131092Y788110D02*
X131092Y796999D01*
G54D18*
X128425Y796999D02*
X133758Y796999D01*
G54D14*
X213600Y540091D02*
X205700Y540091D01*
G54D14*
X223100Y540091D02*
X231100Y540091D01*
G54D14*
X216900Y527391D02*
X216900Y552791D01*
X223200Y552791D01*
X223200Y527391D01*
X216900Y527391D01*
G54D14*
X243800Y519391D02*
X243800Y513091D01*
G54D14*
X240600Y516191D02*
X247000Y516191D01*
G54D14*
X213700Y552791D02*
X213700Y527391D01*
G54D14*
G75*
G01X253200Y540091D02*
G03X253200Y540091I-35000J0D01*
G01*
G54D16*
X506833Y310099D02*
X507500Y311299D01*
X508167Y311699D01*
X509500Y311699D01*
G54D16*
X509500Y308499D02*
X504167Y308499D01*
X504167Y310499D01*
X504500Y311299D01*
X505167Y311699D01*
X505833Y311699D01*
X506500Y311299D01*
X506833Y310499D01*
X506833Y308499D01*
G54D16*
X509500Y315566D02*
X504167Y315566D01*
X507500Y313166D01*
X508167Y313166D01*
X508167Y316366D01*
G54D16*
X509500Y317833D02*
X504167Y317833D01*
G54D16*
X507500Y319033D02*
X509500Y320233D01*
G54D16*
X508167Y317833D02*
X506500Y320233D01*
G54D16*
X504167Y321700D02*
X504167Y324900D01*
X504833Y324500D01*
X505833Y323700D01*
X507167Y322900D01*
X508167Y322500D01*
X509500Y322500D01*
G54D14*
X516500Y299000D02*
X496500Y299000D01*
X496500Y337000D01*
X516500Y337000D01*
X516500Y299000D01*
G54D14*
X687500Y365600D02*
X687500Y347600D01*
X653500Y347600D01*
X653500Y365600D01*
X687500Y365600D01*
G54D15*
X684775Y355581D02*
X682108Y352914D01*
X682108Y360025D01*
G54D15*
X675885Y354247D02*
X675885Y358692D01*
X676419Y359581D01*
X677485Y360025D01*
X678552Y360025D01*
X679619Y359581D01*
X680152Y358692D01*
X680152Y354247D01*
X679619Y353358D01*
X678552Y352914D01*
X677485Y352914D01*
X676419Y353358D01*
X675885Y354247D01*
G54D15*
X669662Y354247D02*
X669662Y358692D01*
X670196Y359581D01*
X671262Y360025D01*
X672329Y360025D01*
X673396Y359581D01*
X673929Y358692D01*
X673929Y354247D01*
X673396Y353358D01*
X672329Y352914D01*
X671262Y352914D01*
X670196Y353358D01*
X669662Y354247D01*
G54D15*
X667706Y360025D02*
X667706Y356025D01*
G54D15*
X667706Y356914D02*
X667173Y356292D01*
X666106Y356025D01*
X665039Y356292D01*
X664506Y356914D01*
X664506Y360025D01*
G54D15*
X662550Y360025D02*
X662550Y352914D01*
X658817Y352914D01*
G54D15*
X662550Y356469D02*
X658817Y356469D01*
G54D14*
X687500Y342600D02*
X687500Y324600D01*
X653500Y324600D01*
X653500Y342600D01*
X687500Y342600D01*
G54D15*
X684775Y332581D02*
X682108Y329914D01*
X682108Y337025D01*
G54D15*
X675885Y331247D02*
X675885Y335692D01*
X676419Y336581D01*
X677485Y337025D01*
X678552Y337025D01*
X679619Y336581D01*
X680152Y335692D01*
X680152Y331247D01*
X679619Y330358D01*
X678552Y329914D01*
X677485Y329914D01*
X676419Y330358D01*
X675885Y331247D01*
G54D15*
X673929Y333025D02*
X673929Y338803D01*
G54D15*
X670729Y333025D02*
X670729Y337025D01*
G54D15*
X670729Y336136D02*
X671262Y336847D01*
X672329Y337025D01*
X673396Y336847D01*
X673929Y336136D01*
X673929Y333025D01*
G54D15*
X668773Y337025D02*
X668773Y329914D01*
X665040Y329914D01*
G54D15*
X668773Y333469D02*
X665040Y333469D01*
G54D10*
X144950Y468650D02*
X30650Y468650D01*
X30650Y367050D01*
X144950Y367050D01*
X144950Y468650D01*
G54D10*
X30650Y455950D02*
X5250Y455950D01*
X5250Y367050D01*
X30650Y367050D01*
G54D16*
X330867Y657692D02*
X330200Y656492D01*
X329533Y656092D01*
X328200Y656092D01*
G54D16*
X328200Y659292D02*
X333533Y659292D01*
X333533Y657292D01*
X333200Y656492D01*
X332533Y656092D01*
X331867Y656092D01*
X331200Y656492D01*
X330867Y657292D01*
X330867Y659292D01*
G54D16*
X331533Y654624D02*
X333533Y652624D01*
X328200Y652624D01*
G54D16*
X332533Y647958D02*
X329200Y647958D01*
X328533Y648358D01*
X328200Y649158D01*
X328200Y649958D01*
X328533Y650758D01*
X329200Y651158D01*
X332533Y651158D01*
X333200Y650758D01*
X333533Y649958D01*
X333533Y649158D01*
X333200Y648358D01*
X332533Y647958D01*
G54D16*
X328200Y646490D02*
X333533Y646490D01*
G54D16*
X330200Y645290D02*
X328200Y644090D01*
G54D16*
X329533Y646490D02*
X331200Y644090D01*
G54D14*
X321200Y668791D02*
X341200Y668791D01*
X341200Y630791D01*
X321200Y630791D01*
X321200Y668791D01*
G54D14*
X360000Y647000D02*
X382000Y647000D01*
X382000Y597000D01*
X360000Y597000D01*
X360000Y647000D01*
G54D18*
X374222Y622667D02*
X368667Y622667D01*
X367556Y623333D01*
X367000Y624667D01*
X367000Y626000D01*
X367556Y627333D01*
X368667Y628000D01*
X374222Y628000D01*
X375333Y627333D01*
X375889Y626000D01*
X375889Y624667D01*
X375333Y623333D01*
X374222Y622667D01*
G54D18*
X371445Y617556D02*
X370333Y615556D01*
X369222Y614890D01*
X367000Y614890D01*
G54D18*
X367000Y620223D02*
X375889Y620223D01*
X375889Y616890D01*
X375333Y615556D01*
X374222Y614890D01*
X373111Y614890D01*
X372000Y615556D01*
X371445Y616890D01*
X371445Y620223D01*
G54D16*
X338399Y683667D02*
X339599Y683000D01*
X339999Y682333D01*
X339999Y681000D01*
G54D16*
X336799Y681000D02*
X336799Y686333D01*
X338799Y686333D01*
X339599Y686000D01*
X339999Y685333D01*
X339999Y684667D01*
X339599Y684000D01*
X338799Y683667D01*
X336799Y683667D01*
G54D16*
X341466Y684333D02*
X343466Y686333D01*
X343466Y681000D01*
G54D16*
X348133Y685333D02*
X348133Y682000D01*
X347733Y681333D01*
X346933Y681000D01*
X346133Y681000D01*
X345333Y681333D01*
X344933Y682000D01*
X344933Y685333D01*
X345333Y686000D01*
X346133Y686333D01*
X346933Y686333D01*
X347733Y686000D01*
X348133Y685333D01*
G54D16*
X349600Y681000D02*
X349600Y686333D01*
G54D16*
X350800Y683000D02*
X352000Y681000D01*
G54D16*
X349600Y682333D02*
X352000Y684000D01*
G54D14*
X327300Y674000D02*
X327300Y694000D01*
X365300Y694000D01*
X365300Y674000D01*
X327300Y674000D01*
G54D14*
X296200Y662791D02*
X314200Y662791D01*
X314200Y628791D01*
X296200Y628791D01*
X296200Y662791D01*
G54D15*
X306219Y660066D02*
X308886Y657399D01*
X301775Y657399D01*
G54D15*
X307553Y651176D02*
X303108Y651176D01*
X302219Y651709D01*
X301775Y652776D01*
X301775Y653843D01*
X302219Y654909D01*
X303108Y655443D01*
X307553Y655443D01*
X308442Y654909D01*
X308886Y653843D01*
X308886Y652776D01*
X308442Y651709D01*
X307553Y651176D01*
G54D15*
X307553Y644953D02*
X303108Y644953D01*
X302219Y645486D01*
X301775Y646553D01*
X301775Y647620D01*
X302219Y648686D01*
X303108Y649220D01*
X307553Y649220D01*
X308442Y648686D01*
X308886Y647620D01*
X308886Y646553D01*
X308442Y645486D01*
X307553Y644953D01*
G54D15*
X301775Y642997D02*
X305775Y642997D01*
G54D15*
X304886Y642997D02*
X305508Y642463D01*
X305775Y641397D01*
X305508Y640330D01*
X304886Y639797D01*
X301775Y639797D01*
G54D15*
X301775Y637841D02*
X308886Y637841D01*
X308886Y634107D01*
G54D15*
X305331Y637841D02*
X305331Y634107D01*
G54D16*
X532399Y775667D02*
X533599Y775000D01*
X533999Y774333D01*
X533999Y773000D01*
G54D16*
X530799Y773000D02*
X530799Y778333D01*
X532799Y778333D01*
X533599Y778000D01*
X533999Y777333D01*
X533999Y776667D01*
X533599Y776000D01*
X532799Y775667D01*
X530799Y775667D01*
G54D16*
X535466Y776333D02*
X537466Y778333D01*
X537466Y773000D01*
G54D16*
X542133Y777333D02*
X542133Y774000D01*
X541733Y773333D01*
X540933Y773000D01*
X540133Y773000D01*
X539333Y773333D01*
X538933Y774000D01*
X538933Y777333D01*
X539333Y778000D01*
X540133Y778333D01*
X540933Y778333D01*
X541733Y778000D01*
X542133Y777333D01*
G54D16*
X543600Y773000D02*
X543600Y778333D01*
G54D16*
X544800Y775000D02*
X546000Y773000D01*
G54D16*
X543600Y774333D02*
X546000Y776000D01*
G54D14*
X521300Y766000D02*
X521300Y786000D01*
X559300Y786000D01*
X559300Y766000D01*
X521300Y766000D01*
M02*
