%FSLAX34Y34*%
%MOMM*%
%LNSILK_TOP*%
G71*
G01*
%ADD10C, 6.00*%
%ADD11R, 5.60X5.60*%
%ADD12R, 7.00X7.00*%
%ADD13R, 5.20X5.10*%
%ADD14R, 5.10X5.20*%
%ADD15C, 6.20*%
%ADD16C, 6.20*%
%ADD17C, 2.00*%
%ADD18C, 4.70*%
%ADD19C, 6.00*%
%ADD20C, 6.00*%
%ADD21C, 7.00*%
%ADD22C, 1.00*%
%ADD23C, 5.00*%
%ADD24C, 0.70*%
%ADD25C, 4.40*%
%ADD26C, 1.60*%
%ADD27C, 10.00*%
%ADD28C, 2.00*%
%ADD29R, 1.60X1.60*%
%ADD30R, 3.00X3.00*%
%ADD31R, 1.20X1.10*%
%ADD32R, 1.10X1.20*%
%ADD33C, 2.20*%
%ADD34C, 2.20*%
%ADD35C, 2.00*%
%ADD36C, 3.00*%
%ADD37C, 0.40*%
%ADD38C, 6.00*%
%LPD*%
G36*
X0Y1000000D02*
X710000Y1000000D01*
X710000Y90000D01*
X0Y90000D01*
X0Y1000000D01*
G37*
%LPC*%
X431200Y932691D02*
G54D10*
D03*
X431200Y907291D02*
G54D10*
D03*
X431200Y881891D02*
G54D10*
D03*
X431200Y856491D02*
G54D10*
D03*
X431200Y831091D02*
G54D10*
D03*
X431200Y805691D02*
G54D10*
D03*
X431200Y780291D02*
G54D10*
D03*
X431200Y754891D02*
G54D10*
D03*
X431200Y729491D02*
G54D10*
D03*
X431200Y704091D02*
G54D10*
D03*
X431200Y678691D02*
G54D10*
D03*
X431200Y653291D02*
G54D10*
D03*
X431200Y602491D02*
G54D10*
D03*
X431200Y577091D02*
G54D10*
D03*
X278800Y932691D02*
G54D10*
D03*
X278800Y907291D02*
G54D10*
D03*
X278800Y881891D02*
G54D10*
D03*
X278800Y856491D02*
G54D10*
D03*
X278800Y831091D02*
G54D10*
D03*
X278800Y805691D02*
G54D10*
D03*
X278800Y780291D02*
G54D10*
D03*
X278800Y754891D02*
G54D10*
D03*
X278800Y729491D02*
G54D10*
D03*
X278800Y704091D02*
G54D10*
D03*
X278800Y678691D02*
G54D10*
D03*
X278800Y653291D02*
G54D10*
D03*
X278800Y602491D02*
G54D10*
D03*
X278800Y577091D02*
G54D10*
D03*
X189300Y370000D02*
G54D11*
D03*
X217300Y370000D02*
G54D11*
D03*
X365000Y321000D02*
G54D12*
D03*
X365000Y271000D02*
G54D12*
D03*
X250500Y586500D02*
G54D13*
D03*
X250500Y569500D02*
G54D13*
D03*
X292000Y356000D02*
G54D14*
D03*
X309000Y356000D02*
G54D14*
D03*
X396700Y125400D02*
G54D15*
D03*
X422100Y125400D02*
G54D15*
D03*
X567000Y742400D02*
G54D16*
D03*
X592400Y742400D02*
G54D16*
D03*
X617800Y742400D02*
G54D16*
D03*
X643200Y742400D02*
G54D16*
D03*
X643200Y717000D02*
G54D16*
D03*
X617800Y717000D02*
G54D16*
D03*
X592400Y717000D02*
G54D16*
D03*
X567000Y717000D02*
G54D16*
D03*
G54D17*
X431200Y653291D02*
X503291Y653291D01*
X567000Y717000D01*
G54D18*
X431200Y678691D02*
X496191Y678691D01*
X538700Y721200D01*
X538700Y753700D01*
X552000Y767000D01*
X631000Y767000D01*
X642000Y756000D01*
G54D18*
X643200Y742400D02*
X643200Y754800D01*
X642000Y756000D01*
X148900Y291000D02*
G54D16*
D03*
X174300Y291000D02*
G54D16*
D03*
X207300Y291000D02*
G54D16*
D03*
X232700Y291000D02*
G54D16*
D03*
X316900Y330000D02*
G54D16*
D03*
X283900Y330000D02*
G54D16*
D03*
X148900Y149000D02*
G54D16*
D03*
X174300Y149000D02*
G54D16*
D03*
X207300Y149000D02*
G54D16*
D03*
X232700Y149000D02*
G54D16*
D03*
G54D19*
X48400Y163500D02*
X48400Y144600D01*
X55000Y138000D01*
X275217Y392999D02*
G54D20*
D03*
X326017Y392999D02*
G54D20*
D03*
G54D17*
X275217Y392999D02*
X275217Y338683D01*
X283900Y330000D01*
G54D19*
X326017Y392999D02*
X326017Y339117D01*
X316900Y330000D01*
G54D17*
X365000Y271000D02*
X324000Y271000D01*
X285000Y310000D01*
G54D17*
X283900Y330000D02*
X283900Y238200D01*
X396700Y125400D01*
G54D18*
X292000Y356000D02*
X272000Y356000D01*
G54D18*
X309000Y356000D02*
X328000Y356000D01*
X376508Y400290D02*
G54D20*
D03*
X376508Y349490D02*
G54D20*
D03*
G54D17*
X325000Y419000D02*
X357799Y419000D01*
X376508Y400290D01*
G54D17*
X325000Y419000D02*
X301218Y419000D01*
X275217Y392999D01*
G54D19*
X376508Y349490D02*
X336390Y349490D01*
X326017Y339117D01*
G54D19*
X365000Y321000D02*
X325900Y321000D01*
X316900Y330000D01*
X487100Y125400D02*
G54D21*
D03*
X537900Y125400D02*
G54D21*
D03*
G54D19*
X422100Y125400D02*
X487100Y125400D01*
G54D19*
X398000Y275000D02*
X398000Y265300D01*
X537900Y125400D01*
G54D19*
X365000Y321000D02*
X382000Y321000D01*
X396000Y307000D01*
G54D19*
X398000Y275000D02*
X398000Y305000D01*
X396000Y307000D01*
X118800Y945800D02*
G54D10*
D03*
X144200Y945800D02*
G54D10*
D03*
X169600Y945800D02*
G54D10*
D03*
X195000Y945800D02*
G54D10*
D03*
X195000Y907700D02*
G54D10*
D03*
X169600Y907700D02*
G54D10*
D03*
X144200Y907700D02*
G54D10*
D03*
X118800Y907700D02*
G54D10*
D03*
X118800Y869600D02*
G54D10*
D03*
X144200Y869600D02*
G54D10*
D03*
X169600Y869600D02*
G54D10*
D03*
X195000Y869600D02*
G54D10*
D03*
G54D22*
X118800Y945800D02*
X118800Y869600D01*
G54D23*
X144200Y945800D02*
X144200Y869600D01*
X153000Y795000D02*
G54D10*
D03*
X153000Y769600D02*
G54D10*
D03*
X153000Y744200D02*
G54D10*
D03*
X153000Y718800D02*
G54D10*
D03*
X153000Y693400D02*
G54D10*
D03*
X153000Y668000D02*
G54D10*
D03*
X153000Y642600D02*
G54D10*
D03*
X153000Y617200D02*
G54D10*
D03*
G54D18*
X153000Y617200D02*
X242709Y617200D01*
X278800Y653291D01*
G54D24*
X134000Y616000D02*
X134000Y627000D01*
X149000Y642000D01*
G54D24*
X154000Y598000D02*
X142000Y598000D01*
X134000Y606000D01*
X134000Y616000D01*
G54D24*
X154000Y598000D02*
X167000Y598000D01*
X171000Y602000D01*
G54D24*
X278800Y602491D02*
X171491Y602491D01*
X171000Y602000D01*
G54D18*
X153000Y668000D02*
X210000Y668000D01*
X267000Y725000D01*
G54D18*
X278800Y729491D02*
X271491Y729491D01*
X267000Y725000D01*
G54D18*
X153000Y693400D02*
X210400Y693400D01*
X268000Y751000D01*
G54D18*
X278800Y754891D02*
X271891Y754891D01*
X268000Y751000D01*
G54D18*
X662000Y724000D02*
X662000Y757000D01*
X622000Y797000D01*
G54D18*
X431200Y805691D02*
X613309Y805691D01*
X622000Y797000D01*
G54D18*
X431200Y831091D02*
X608909Y831091D01*
X667000Y773000D01*
G54D18*
X673000Y745000D02*
X673000Y767000D01*
X667000Y773000D01*
G54D18*
X684000Y746000D02*
X684000Y765000D01*
G54D18*
X695000Y745000D02*
X695000Y764000D01*
G54D18*
X431200Y856491D02*
X603509Y856491D01*
X684000Y776000D01*
X684000Y765000D01*
G54D18*
X431200Y881891D02*
X599109Y881891D01*
X695000Y786000D01*
X695000Y764000D01*
G54D18*
X232700Y291000D02*
X232700Y380700D01*
X290000Y438000D01*
X380000Y438000D01*
X440000Y378000D01*
G54D18*
X695000Y745000D02*
X695000Y529000D01*
G54D18*
X613000Y389000D02*
X684000Y460000D01*
X684000Y746000D01*
G54D18*
X323000Y450000D02*
X284000Y450000D01*
X219000Y385000D01*
G54D18*
X217300Y370000D02*
X217300Y383300D01*
X219000Y385000D01*
G54D18*
X174300Y291000D02*
X174300Y355000D01*
X189300Y370000D01*
G54D18*
X673000Y745000D02*
X673000Y467000D01*
X606000Y400000D01*
X455000Y400000D01*
X393000Y462000D01*
X275000Y462000D01*
X204000Y391000D01*
G54D25*
X203300Y356000D02*
X203300Y383000D01*
G54D18*
X203300Y383000D02*
X203300Y390300D01*
X204000Y391000D01*
G54D18*
X203300Y356000D02*
X203300Y295000D01*
X207300Y291000D01*
G54D18*
X662000Y724000D02*
X662000Y474000D01*
X599000Y411000D01*
X462000Y411000D01*
X399000Y474000D01*
X262000Y474000D01*
X153000Y365000D01*
G54D18*
X148900Y291000D02*
X148900Y360900D01*
X153000Y365000D01*
X193000Y540091D02*
G54D20*
D03*
X243800Y540091D02*
G54D20*
D03*
G54D18*
X278800Y602491D02*
X266491Y602491D01*
X250500Y586500D01*
G54D18*
X250500Y569500D02*
X271209Y569500D01*
X278800Y577091D01*
G54D18*
X278800Y780291D02*
X178709Y780291D01*
X165000Y794000D01*
G54D18*
X153000Y795000D02*
X164000Y795000D01*
X165000Y794000D01*
G54D26*
X96200Y836600D02*
X96200Y617800D01*
X173000Y541000D01*
G54D26*
X193000Y540091D02*
X173909Y540091D01*
X173000Y541000D01*
G54D18*
X278000Y976000D02*
X254000Y976000D01*
X251000Y973000D01*
G54D18*
X278000Y976000D02*
X304000Y976000D01*
X329000Y951000D01*
X329000Y765000D01*
X338000Y756000D01*
G54D18*
X431200Y754891D02*
X339109Y754891D01*
X338000Y756000D01*
G54D18*
X431200Y780291D02*
X370709Y780291D01*
X369000Y782000D01*
X55000Y945000D02*
G54D27*
D03*
X655000Y945000D02*
G54D27*
D03*
X655000Y145000D02*
G54D27*
D03*
G54D26*
X118800Y869600D02*
X118800Y859200D01*
X96200Y836600D01*
G54D18*
X278800Y805691D02*
X196309Y805691D01*
X170000Y832000D01*
G54D18*
X169600Y869600D02*
X169600Y832400D01*
X170000Y832000D01*
G54D18*
X278800Y831091D02*
X233509Y831091D01*
X195000Y869600D01*
G54D18*
X343000Y825000D02*
X343000Y808000D01*
X369000Y782000D01*
G54D18*
X343000Y825000D02*
X343000Y956000D01*
X311000Y988000D01*
X295000Y988000D01*
G54D18*
X169600Y945800D02*
X169600Y869600D01*
G54D18*
X295000Y988000D02*
X237200Y988000D01*
X195000Y945800D01*
G54D18*
X195000Y907700D02*
X195000Y917000D01*
X251000Y973000D01*
X635000Y355600D02*
G54D16*
D03*
X635000Y330200D02*
G54D16*
D03*
X635000Y304800D02*
G54D16*
D03*
X609600Y304800D02*
G54D16*
D03*
X609600Y355600D02*
G54D16*
D03*
X609600Y330200D02*
G54D16*
D03*
X584200Y304800D02*
G54D16*
D03*
X584200Y330200D02*
G54D16*
D03*
X584200Y355600D02*
G54D16*
D03*
X558800Y355600D02*
G54D16*
D03*
X558800Y330200D02*
G54D16*
D03*
X558800Y304800D02*
G54D16*
D03*
X533400Y355600D02*
G54D16*
D03*
X533400Y330200D02*
G54D16*
D03*
X533400Y304800D02*
G54D16*
D03*
X279000Y519000D02*
G54D10*
D03*
X447000Y519000D02*
G54D10*
D03*
X119550Y455950D02*
G54D16*
D03*
X119550Y430550D02*
G54D16*
D03*
X119550Y405150D02*
G54D16*
D03*
X119550Y379750D02*
G54D16*
D03*
X68750Y379750D02*
G54D16*
D03*
X68750Y405150D02*
G54D16*
D03*
X68750Y430550D02*
G54D16*
D03*
X68750Y455950D02*
G54D16*
D03*
X55000Y145000D02*
G54D27*
D03*
G54D19*
X68750Y455950D02*
X24950Y455950D01*
X18000Y449000D01*
G54D19*
X18000Y449000D02*
X18000Y251000D01*
X119000Y150000D01*
G54D19*
X148900Y149000D02*
X120000Y149000D01*
X119000Y150000D01*
G54D19*
X43000Y403000D02*
X43000Y424000D01*
X49000Y430000D01*
G54D19*
X68750Y430550D02*
X49550Y430550D01*
X49000Y430000D01*
G54D19*
X43000Y403000D02*
X43000Y266000D01*
X133000Y176000D01*
X162000Y176000D01*
X174000Y164000D01*
G54D19*
X174300Y149000D02*
X174300Y163700D01*
X174000Y164000D01*
G54D19*
X68750Y405150D02*
X87850Y405150D01*
X94000Y399000D01*
X94000Y298000D01*
X135000Y257000D01*
G54D19*
X68750Y379750D02*
X68750Y281250D01*
X140000Y210000D01*
G54D19*
X140000Y210000D02*
X169000Y210000D01*
X205000Y174000D01*
G54D19*
X207300Y149000D02*
X207300Y171700D01*
X205000Y174000D01*
G54D19*
X232700Y149000D02*
X232700Y186300D01*
X183000Y236000D01*
X156000Y236000D01*
X135000Y257000D01*
G54D19*
X94000Y304000D02*
X94000Y298000D01*
X135000Y257000D01*
G54D18*
X373000Y438000D02*
X380000Y438000D01*
X440000Y378000D01*
X619000Y378000D01*
X695000Y454000D01*
X695000Y529000D01*
G54D18*
X323000Y450000D02*
X386000Y450000D01*
X447000Y389000D01*
X613000Y389000D01*
X683000Y459000D01*
G54D18*
X684000Y535000D02*
X684000Y460000D01*
X683000Y459000D01*
G54D18*
X275000Y462000D02*
X393000Y462000D01*
X455000Y400000D01*
X606000Y400000D01*
X666000Y460000D01*
G54D18*
X673000Y541000D02*
X673000Y467000D01*
X666000Y460000D01*
G54D18*
X262000Y474000D02*
X399000Y474000D01*
X462000Y411000D01*
X599000Y411000D01*
X655000Y467000D01*
G54D18*
X662000Y547000D02*
X662000Y474000D01*
X655000Y467000D01*
G54D18*
X414000Y575000D02*
X414000Y699000D01*
X419000Y704000D01*
G54D18*
X431200Y704091D02*
X419091Y704091D01*
X419000Y704000D01*
G54D18*
X279000Y519000D02*
X279000Y538000D01*
X303000Y562000D01*
X303000Y645000D01*
X295709Y652291D01*
G54D18*
X278800Y653291D02*
X294709Y653291D01*
X295709Y652291D01*
G54D18*
X447000Y519000D02*
X435000Y519000D01*
X393000Y561000D01*
X393000Y710000D01*
X411000Y728000D01*
G54D18*
X431200Y729491D02*
X412491Y729491D01*
X411000Y728000D01*
G54D18*
X278800Y729491D02*
X303509Y729491D01*
X314000Y719000D01*
X619200Y546400D02*
G54D10*
D03*
X593800Y546400D02*
G54D10*
D03*
X568400Y546400D02*
G54D10*
D03*
X543000Y546400D02*
G54D10*
D03*
X619200Y521000D02*
G54D10*
D03*
X593800Y521000D02*
G54D10*
D03*
X568400Y521000D02*
G54D10*
D03*
X543000Y521000D02*
G54D10*
D03*
X517600Y521000D02*
G54D10*
D03*
X517600Y546400D02*
G54D10*
D03*
X492200Y521000D02*
G54D10*
D03*
X492200Y546400D02*
G54D10*
D03*
G54D18*
X414000Y575000D02*
X414000Y565000D01*
X425000Y554000D01*
X484600Y554000D01*
X492200Y546400D01*
G54D18*
X431200Y577091D02*
X486909Y577091D01*
X517600Y546400D01*
G54D18*
X431200Y602491D02*
X498509Y602491D01*
X539000Y562000D01*
G54D18*
X543000Y546400D02*
X543000Y558000D01*
X539000Y562000D01*
G54D24*
X567000Y717000D02*
X567000Y547800D01*
X568400Y546400D01*
G54D18*
X617800Y717000D02*
X617800Y694800D01*
X594000Y671000D01*
G54D18*
X593800Y546400D02*
X593800Y670800D01*
X594000Y671000D01*
G54D18*
X643200Y717000D02*
X643200Y697200D01*
X620000Y674000D01*
G54D18*
X619200Y546400D02*
X619200Y673200D01*
X620000Y674000D01*
G54D18*
X288000Y485000D02*
X406000Y485000D01*
X469000Y422000D01*
X594000Y422000D01*
X603000Y431000D01*
G54D18*
X619200Y521000D02*
X619200Y447200D01*
X603000Y431000D01*
G54D18*
X279000Y519000D02*
X279000Y494000D01*
X288000Y485000D01*
G54D18*
X354000Y496000D02*
X412000Y496000D01*
X475000Y433000D01*
X588000Y433000D01*
X592000Y437000D01*
G54D18*
X593800Y521000D02*
X593800Y439200D01*
X592000Y437000D01*
G54D18*
X314000Y617000D02*
X314000Y719000D01*
X303509Y729491D01*
G54D18*
X314000Y617000D02*
X314000Y501000D01*
X319000Y496000D01*
X354000Y496000D01*
G54D18*
X325000Y689000D02*
X325000Y725000D01*
X296000Y754000D01*
G54D18*
X278800Y754891D02*
X295109Y754891D01*
X296000Y754000D01*
G54D18*
X325000Y689000D02*
X325000Y511000D01*
X329000Y507000D01*
X418000Y507000D01*
X481000Y444000D01*
X562000Y444000D01*
X568000Y450000D01*
G54D18*
X568400Y521000D02*
X568400Y450400D01*
X568000Y450000D01*
G54D18*
X492200Y521000D02*
X449000Y521000D01*
X447000Y519000D01*
G54D19*
X68750Y455950D02*
X119550Y455950D01*
G54D19*
X68750Y430550D02*
X119550Y430550D01*
G54D19*
X119550Y405150D02*
X68750Y405150D01*
G54D24*
X153000Y642600D02*
X70600Y642600D01*
X70000Y642000D01*
%LPD*%
X431200Y932691D02*
G54D28*
D03*
X431200Y907291D02*
G54D28*
D03*
X431200Y881891D02*
G54D28*
D03*
X431200Y856491D02*
G54D28*
D03*
X431200Y831091D02*
G54D28*
D03*
X431200Y805691D02*
G54D28*
D03*
X431200Y780291D02*
G54D28*
D03*
X431200Y754891D02*
G54D28*
D03*
X431200Y729491D02*
G54D28*
D03*
X431200Y704091D02*
G54D28*
D03*
X431200Y678691D02*
G54D28*
D03*
X431200Y653291D02*
G54D28*
D03*
X431200Y602491D02*
G54D28*
D03*
X431200Y577091D02*
G54D28*
D03*
X278800Y932691D02*
G54D28*
D03*
X278800Y907291D02*
G54D28*
D03*
X278800Y881891D02*
G54D28*
D03*
X278800Y856491D02*
G54D28*
D03*
X278800Y831091D02*
G54D28*
D03*
X278800Y805691D02*
G54D28*
D03*
X278800Y780291D02*
G54D28*
D03*
X278800Y754891D02*
G54D28*
D03*
X278800Y729491D02*
G54D28*
D03*
X278800Y704091D02*
G54D28*
D03*
X278800Y678691D02*
G54D28*
D03*
X278800Y653291D02*
G54D28*
D03*
X278800Y602491D02*
G54D28*
D03*
X278800Y577091D02*
G54D28*
D03*
X189300Y370000D02*
G54D29*
D03*
X217300Y370000D02*
G54D29*
D03*
X365000Y321000D02*
G54D30*
D03*
X365000Y271000D02*
G54D30*
D03*
X250500Y586500D02*
G54D31*
D03*
X250500Y569500D02*
G54D31*
D03*
X292000Y356000D02*
G54D32*
D03*
X309000Y356000D02*
G54D32*
D03*
X396700Y125400D02*
G54D33*
D03*
X422100Y125400D02*
G54D33*
D03*
X567000Y742400D02*
G54D34*
D03*
X592400Y742400D02*
G54D34*
D03*
X617800Y742400D02*
G54D34*
D03*
X643200Y742400D02*
G54D34*
D03*
X643200Y717000D02*
G54D34*
D03*
X617800Y717000D02*
G54D34*
D03*
X592400Y717000D02*
G54D34*
D03*
X567000Y717000D02*
G54D34*
D03*
G54D17*
X431200Y653291D02*
X503291Y653291D01*
X567000Y717000D01*
G54D24*
X431200Y678691D02*
X496191Y678691D01*
X538700Y721200D01*
X538700Y753700D01*
X552000Y767000D01*
X631000Y767000D01*
X642000Y756000D01*
G54D24*
X643200Y742400D02*
X643200Y754800D01*
X642000Y756000D01*
X148900Y291000D02*
G54D34*
D03*
X174300Y291000D02*
G54D34*
D03*
X207300Y291000D02*
G54D34*
D03*
X232700Y291000D02*
G54D34*
D03*
X316900Y330000D02*
G54D34*
D03*
X283900Y330000D02*
G54D34*
D03*
X148900Y149000D02*
G54D34*
D03*
X174300Y149000D02*
G54D34*
D03*
X207300Y149000D02*
G54D34*
D03*
X232700Y149000D02*
G54D34*
D03*
G54D17*
X48400Y163500D02*
X48400Y144600D01*
X55000Y138000D01*
X275217Y392999D02*
G54D35*
D03*
X326017Y392999D02*
G54D35*
D03*
G54D17*
X275217Y392999D02*
X275217Y338683D01*
X283900Y330000D01*
G54D17*
X326017Y392999D02*
X326017Y339117D01*
X316900Y330000D01*
G54D17*
X365000Y271000D02*
X324000Y271000D01*
X285000Y310000D01*
G54D17*
X283900Y330000D02*
X283900Y238200D01*
X396700Y125400D01*
G54D24*
X292000Y356000D02*
X272000Y356000D01*
G54D24*
X309000Y356000D02*
X328000Y356000D01*
X376508Y400290D02*
G54D35*
D03*
X376508Y349490D02*
G54D35*
D03*
G54D17*
X325000Y419000D02*
X357799Y419000D01*
X376508Y400290D01*
G54D17*
X325000Y419000D02*
X301218Y419000D01*
X275217Y392999D01*
G54D17*
X376508Y349490D02*
X336390Y349490D01*
X326017Y339117D01*
G54D17*
X365000Y321000D02*
X325900Y321000D01*
X316900Y330000D01*
X487100Y125400D02*
G54D36*
D03*
X537900Y125400D02*
G54D36*
D03*
G54D17*
X422100Y125400D02*
X487100Y125400D01*
G54D17*
X398000Y275000D02*
X398000Y265300D01*
X537900Y125400D01*
G54D17*
X365000Y321000D02*
X382000Y321000D01*
X396000Y307000D01*
G54D17*
X398000Y275000D02*
X398000Y305000D01*
X396000Y307000D01*
X118800Y945800D02*
G54D28*
D03*
X144200Y945800D02*
G54D28*
D03*
X169600Y945800D02*
G54D28*
D03*
X195000Y945800D02*
G54D28*
D03*
X195000Y907700D02*
G54D28*
D03*
X169600Y907700D02*
G54D28*
D03*
X144200Y907700D02*
G54D28*
D03*
X118800Y907700D02*
G54D28*
D03*
X118800Y869600D02*
G54D28*
D03*
X144200Y869600D02*
G54D28*
D03*
X169600Y869600D02*
G54D28*
D03*
X195000Y869600D02*
G54D28*
D03*
G54D22*
X118800Y945800D02*
X118800Y869600D01*
G54D22*
X144200Y945800D02*
X144200Y869600D01*
X153000Y795000D02*
G54D28*
D03*
X153000Y769600D02*
G54D28*
D03*
X153000Y744200D02*
G54D28*
D03*
X153000Y718800D02*
G54D28*
D03*
X153000Y693400D02*
G54D28*
D03*
X153000Y668000D02*
G54D28*
D03*
X153000Y642600D02*
G54D28*
D03*
X153000Y617200D02*
G54D28*
D03*
G54D24*
X153000Y617200D02*
X242709Y617200D01*
X278800Y653291D01*
G54D24*
X134000Y616000D02*
X134000Y627000D01*
X149000Y642000D01*
G54D24*
X154000Y598000D02*
X142000Y598000D01*
X134000Y606000D01*
X134000Y616000D01*
G54D24*
X154000Y598000D02*
X167000Y598000D01*
X171000Y602000D01*
G54D24*
X278800Y602491D02*
X171491Y602491D01*
X171000Y602000D01*
G54D24*
X153000Y668000D02*
X210000Y668000D01*
X267000Y725000D01*
G54D24*
X278800Y729491D02*
X271491Y729491D01*
X267000Y725000D01*
G54D24*
X153000Y693400D02*
X210400Y693400D01*
X268000Y751000D01*
G54D24*
X278800Y754891D02*
X271891Y754891D01*
X268000Y751000D01*
G54D24*
X662000Y724000D02*
X662000Y757000D01*
X622000Y797000D01*
G54D24*
X431200Y805691D02*
X613309Y805691D01*
X622000Y797000D01*
G54D24*
X431200Y831091D02*
X608909Y831091D01*
X667000Y773000D01*
G54D24*
X673000Y745000D02*
X673000Y767000D01*
X667000Y773000D01*
G54D24*
X684000Y746000D02*
X684000Y765000D01*
G54D24*
X695000Y745000D02*
X695000Y764000D01*
G54D24*
X431200Y856491D02*
X603509Y856491D01*
X684000Y776000D01*
X684000Y765000D01*
G54D24*
X431200Y881891D02*
X599109Y881891D01*
X695000Y786000D01*
X695000Y764000D01*
G54D24*
X232700Y291000D02*
X232700Y380700D01*
X290000Y438000D01*
X380000Y438000D01*
X440000Y378000D01*
G54D24*
X695000Y745000D02*
X695000Y529000D01*
G54D24*
X613000Y389000D02*
X684000Y460000D01*
X684000Y746000D01*
G54D24*
X323000Y450000D02*
X284000Y450000D01*
X219000Y385000D01*
G54D24*
X217300Y370000D02*
X217300Y383300D01*
X219000Y385000D01*
G54D24*
X174300Y291000D02*
X174300Y355000D01*
X189300Y370000D01*
G54D24*
X673000Y745000D02*
X673000Y467000D01*
X606000Y400000D01*
X455000Y400000D01*
X393000Y462000D01*
X275000Y462000D01*
X204000Y391000D01*
G54D37*
X203300Y356000D02*
X203300Y383000D01*
G54D24*
X203300Y383000D02*
X203300Y390300D01*
X204000Y391000D01*
G54D24*
X203300Y356000D02*
X203300Y295000D01*
X207300Y291000D01*
G54D24*
X662000Y724000D02*
X662000Y474000D01*
X599000Y411000D01*
X462000Y411000D01*
X399000Y474000D01*
X262000Y474000D01*
X153000Y365000D01*
G54D24*
X148900Y291000D02*
X148900Y360900D01*
X153000Y365000D01*
X193000Y540091D02*
G54D35*
D03*
X243800Y540091D02*
G54D35*
D03*
G54D24*
X278800Y602491D02*
X266491Y602491D01*
X250500Y586500D01*
G54D24*
X250500Y569500D02*
X271209Y569500D01*
X278800Y577091D01*
G54D24*
X278800Y780291D02*
X178709Y780291D01*
X165000Y794000D01*
G54D24*
X153000Y795000D02*
X164000Y795000D01*
X165000Y794000D01*
G54D26*
X96200Y836600D02*
X96200Y617800D01*
X173000Y541000D01*
G54D26*
X193000Y540091D02*
X173909Y540091D01*
X173000Y541000D01*
G54D24*
X278000Y976000D02*
X254000Y976000D01*
X251000Y973000D01*
G54D24*
X278000Y976000D02*
X304000Y976000D01*
X329000Y951000D01*
X329000Y765000D01*
X338000Y756000D01*
G54D24*
X431200Y754891D02*
X339109Y754891D01*
X338000Y756000D01*
G54D24*
X431200Y780291D02*
X370709Y780291D01*
X369000Y782000D01*
X55000Y945000D02*
G54D38*
D03*
X655000Y945000D02*
G54D38*
D03*
X655000Y145000D02*
G54D38*
D03*
G54D26*
X118800Y869600D02*
X118800Y859200D01*
X96200Y836600D01*
G54D24*
X278800Y805691D02*
X196309Y805691D01*
X170000Y832000D01*
G54D24*
X169600Y869600D02*
X169600Y832400D01*
X170000Y832000D01*
G54D24*
X278800Y831091D02*
X233509Y831091D01*
X195000Y869600D01*
G54D24*
X343000Y825000D02*
X343000Y808000D01*
X369000Y782000D01*
G54D24*
X343000Y825000D02*
X343000Y956000D01*
X311000Y988000D01*
X295000Y988000D01*
G54D24*
X169600Y945800D02*
X169600Y869600D01*
G54D24*
X295000Y988000D02*
X237200Y988000D01*
X195000Y945800D01*
G54D24*
X195000Y907700D02*
X195000Y917000D01*
X251000Y973000D01*
X635000Y355600D02*
G54D34*
D03*
X635000Y330200D02*
G54D34*
D03*
X635000Y304800D02*
G54D34*
D03*
X609600Y304800D02*
G54D34*
D03*
X609600Y355600D02*
G54D34*
D03*
X609600Y330200D02*
G54D34*
D03*
X584200Y304800D02*
G54D34*
D03*
X584200Y330200D02*
G54D34*
D03*
X584200Y355600D02*
G54D34*
D03*
X558800Y355600D02*
G54D34*
D03*
X558800Y330200D02*
G54D34*
D03*
X558800Y304800D02*
G54D34*
D03*
X533400Y355600D02*
G54D34*
D03*
X533400Y330200D02*
G54D34*
D03*
X533400Y304800D02*
G54D34*
D03*
X279000Y519000D02*
G54D28*
D03*
X447000Y519000D02*
G54D28*
D03*
X119550Y455950D02*
G54D34*
D03*
X119550Y430550D02*
G54D34*
D03*
X119550Y405150D02*
G54D34*
D03*
X119550Y379750D02*
G54D34*
D03*
X68750Y379750D02*
G54D34*
D03*
X68750Y405150D02*
G54D34*
D03*
X68750Y430550D02*
G54D34*
D03*
X68750Y455950D02*
G54D34*
D03*
X55000Y145000D02*
G54D38*
D03*
G54D17*
X68750Y455950D02*
X24950Y455950D01*
X18000Y449000D01*
G54D17*
X18000Y449000D02*
X18000Y251000D01*
X119000Y150000D01*
G54D17*
X148900Y149000D02*
X120000Y149000D01*
X119000Y150000D01*
G54D17*
X43000Y403000D02*
X43000Y424000D01*
X49000Y430000D01*
G54D17*
X68750Y430550D02*
X49550Y430550D01*
X49000Y430000D01*
G54D17*
X43000Y403000D02*
X43000Y266000D01*
X133000Y176000D01*
X162000Y176000D01*
X174000Y164000D01*
G54D17*
X174300Y149000D02*
X174300Y163700D01*
X174000Y164000D01*
G54D17*
X68750Y405150D02*
X87850Y405150D01*
X94000Y399000D01*
X94000Y298000D01*
X135000Y257000D01*
G54D17*
X68750Y379750D02*
X68750Y281250D01*
X140000Y210000D01*
G54D17*
X140000Y210000D02*
X169000Y210000D01*
X205000Y174000D01*
G54D17*
X207300Y149000D02*
X207300Y171700D01*
X205000Y174000D01*
G54D17*
X232700Y149000D02*
X232700Y186300D01*
X183000Y236000D01*
X156000Y236000D01*
X135000Y257000D01*
G54D17*
X94000Y304000D02*
X94000Y298000D01*
X135000Y257000D01*
G54D24*
X373000Y438000D02*
X380000Y438000D01*
X440000Y378000D01*
X619000Y378000D01*
X695000Y454000D01*
X695000Y529000D01*
G54D24*
X323000Y450000D02*
X386000Y450000D01*
X447000Y389000D01*
X613000Y389000D01*
X683000Y459000D01*
G54D24*
X684000Y535000D02*
X684000Y460000D01*
X683000Y459000D01*
G54D24*
X275000Y462000D02*
X393000Y462000D01*
X455000Y400000D01*
X606000Y400000D01*
X666000Y460000D01*
G54D24*
X673000Y541000D02*
X673000Y467000D01*
X666000Y460000D01*
G54D24*
X262000Y474000D02*
X399000Y474000D01*
X462000Y411000D01*
X599000Y411000D01*
X655000Y467000D01*
G54D24*
X662000Y547000D02*
X662000Y474000D01*
X655000Y467000D01*
G54D24*
X414000Y575000D02*
X414000Y699000D01*
X419000Y704000D01*
G54D24*
X431200Y704091D02*
X419091Y704091D01*
X419000Y704000D01*
G54D24*
X279000Y519000D02*
X279000Y538000D01*
X303000Y562000D01*
X303000Y645000D01*
X295709Y652291D01*
G54D24*
X278800Y653291D02*
X294709Y653291D01*
X295709Y652291D01*
G54D24*
X447000Y519000D02*
X435000Y519000D01*
X393000Y561000D01*
X393000Y710000D01*
X411000Y728000D01*
G54D24*
X431200Y729491D02*
X412491Y729491D01*
X411000Y728000D01*
G54D24*
X278800Y729491D02*
X303509Y729491D01*
X314000Y719000D01*
X619200Y546400D02*
G54D28*
D03*
X593800Y546400D02*
G54D28*
D03*
X568400Y546400D02*
G54D28*
D03*
X543000Y546400D02*
G54D28*
D03*
X619200Y521000D02*
G54D28*
D03*
X593800Y521000D02*
G54D28*
D03*
X568400Y521000D02*
G54D28*
D03*
X543000Y521000D02*
G54D28*
D03*
X517600Y521000D02*
G54D28*
D03*
X517600Y546400D02*
G54D28*
D03*
X492200Y521000D02*
G54D28*
D03*
X492200Y546400D02*
G54D28*
D03*
G54D24*
X414000Y575000D02*
X414000Y565000D01*
X425000Y554000D01*
X484600Y554000D01*
X492200Y546400D01*
G54D24*
X431200Y577091D02*
X486909Y577091D01*
X517600Y546400D01*
G54D24*
X431200Y602491D02*
X498509Y602491D01*
X539000Y562000D01*
G54D24*
X543000Y546400D02*
X543000Y558000D01*
X539000Y562000D01*
G54D24*
X567000Y717000D02*
X567000Y547800D01*
X568400Y546400D01*
G54D24*
X617800Y717000D02*
X617800Y694800D01*
X594000Y671000D01*
G54D24*
X593800Y546400D02*
X593800Y670800D01*
X594000Y671000D01*
G54D24*
X643200Y717000D02*
X643200Y697200D01*
X620000Y674000D01*
G54D24*
X619200Y546400D02*
X619200Y673200D01*
X620000Y674000D01*
G54D24*
X288000Y485000D02*
X406000Y485000D01*
X469000Y422000D01*
X594000Y422000D01*
X603000Y431000D01*
G54D24*
X619200Y521000D02*
X619200Y447200D01*
X603000Y431000D01*
G54D24*
X279000Y519000D02*
X279000Y494000D01*
X288000Y485000D01*
G54D24*
X354000Y496000D02*
X412000Y496000D01*
X475000Y433000D01*
X588000Y433000D01*
X592000Y437000D01*
G54D24*
X593800Y521000D02*
X593800Y439200D01*
X592000Y437000D01*
G54D24*
X314000Y617000D02*
X314000Y719000D01*
X303509Y729491D01*
G54D24*
X314000Y617000D02*
X314000Y501000D01*
X319000Y496000D01*
X354000Y496000D01*
G54D24*
X325000Y689000D02*
X325000Y725000D01*
X296000Y754000D01*
G54D24*
X278800Y754891D02*
X295109Y754891D01*
X296000Y754000D01*
G54D24*
X325000Y689000D02*
X325000Y511000D01*
X329000Y507000D01*
X418000Y507000D01*
X481000Y444000D01*
X562000Y444000D01*
X568000Y450000D01*
G54D24*
X568400Y521000D02*
X568400Y450400D01*
X568000Y450000D01*
G54D24*
X492200Y521000D02*
X449000Y521000D01*
X447000Y519000D01*
G54D17*
X68750Y455950D02*
X119550Y455950D01*
G54D17*
X68750Y430550D02*
X119550Y430550D01*
G54D17*
X119550Y405150D02*
X68750Y405150D01*
G54D24*
X153000Y642600D02*
X70600Y642600D01*
X70000Y642000D01*
M02*
